# Blender 5.2.0 LTS
# www.blender.org
mtllib Room3.mtl
o Plane
v -3.000000 0.000000 3.000000
v 3.000000 0.000000 3.000000
v -3.000000 0.000000 -3.000000
v 3.000000 0.000000 -3.000000
v -3.000000 0.150000 -3.000000
v -3.000000 0.150000 3.000000
v 3.000000 0.150000 3.000000
v 3.000000 0.150000 -3.000000
v -3.000000 0.150000 -2.850000
v 3.000000 0.150000 -2.850000
v -2.850000 0.150000 -3.000000
v -2.850000 0.150000 3.000000
v -3.000000 3.150000 -3.000000
v -3.000000 3.150000 3.000000
v 3.000000 3.150000 -3.000000
v 3.000000 3.150000 -2.850000
v -3.000000 3.150000 -2.850000
v -2.850000 3.150000 -3.000000
v -2.850000 3.150000 3.000000
v -2.850001 1.229492 2.820693
v -1.235622 1.229492 2.820693
v -2.850001 1.396759 2.820693
v -1.235622 1.396759 2.820693
v -2.850001 1.229492 -2.843421
v -1.235622 1.229492 -2.843421
v -2.850001 1.396759 -2.843421
v -1.235622 1.396759 -2.843421
v -1.235623 1.234930 -1.620566
v 0.259977 1.234930 -1.620566
v -1.235623 1.395330 -1.620566
v 0.259977 1.395330 -1.620566
v -1.235623 1.234930 -2.837903
v 0.259977 1.234930 -2.837903
v -1.235623 1.395330 -2.837903
v 0.259977 1.395330 -2.837903
v -1.361443 1.229492 2.739209
v -1.361443 0.159921 2.739209
v -1.361443 1.229492 2.661627
v -1.361443 0.159921 2.661627
v -1.460947 1.229492 2.739209
v -1.460948 0.159921 2.739209
v -1.460947 1.229492 2.661627
v -1.460948 0.159921 2.661627
v -2.642058 1.228009 2.770602
v -2.642058 0.158438 2.770602
v -2.642058 1.228009 2.693020
v -2.642058 0.158438 2.693020
v -2.741562 1.228009 2.770602
v -2.741562 0.158438 2.770602
v -2.741562 1.228009 2.693020
v -2.741562 0.158438 2.693020
v 0.220778 1.234930 -1.700162
v 0.220777 0.157089 -1.700162
v 0.220778 1.234930 -1.775244
v 0.220777 0.157089 -1.775244
v 0.133692 1.234930 -1.700162
v 0.133691 0.157089 -1.700162
v 0.133692 1.234930 -1.775244
v 0.133691 0.157089 -1.775244
v 0.186238 1.237838 -2.692349
v 0.186238 0.159996 -2.692349
v 0.186238 1.237838 -2.767431
v 0.186238 0.159996 -2.767431
v 0.099152 1.237838 -2.692349
v 0.099152 0.159996 -2.692349
v 0.099152 1.237838 -2.767431
v 0.099152 0.159996 -2.767431
v 2.578282 1.302853 -2.850000
v -1.858950 1.947858 -2.808701
v 1.355935 1.302853 -2.850000
v -1.858950 1.947858 -2.849999
v 2.578282 2.889412 -2.850000
v 0.897388 1.947858 -2.808701
v 1.355934 2.889412 -2.850000
v 0.897388 1.947858 -2.850000
v 2.578282 1.302853 -2.850667
v 1.355935 1.302853 -2.850667
v 2.578282 2.889412 -2.850667
v 1.355934 2.889412 -2.850667
v 0.897388 2.938960 -2.850000
v 0.897388 2.938960 -2.808701
v -1.858950 2.938960 -2.849999
v -1.858950 2.938960 -2.808701
v 0.833250 2.456366 -2.808701
v 0.833250 2.456366 -2.522479
v -1.785163 2.456366 -2.808701
v -1.785163 2.456366 -2.522479
v 0.833250 2.505278 -2.808701
v 0.833250 2.505278 -2.522479
v -1.785163 2.505277 -2.808701
v -1.785163 2.505277 -2.522479
v 0.677253 2.456366 -2.552640
v 0.716051 2.187042 -2.812160
v 0.677253 2.456366 -2.611062
v 0.716051 2.187042 -2.870583
v 0.599246 2.456366 -2.552640
v 0.638043 2.187042 -2.812160
v 0.599246 2.456366 -2.611062
v 0.638043 2.187042 -2.870583
v -1.532020 2.459221 -2.602526
v -1.493223 2.189897 -2.862046
v -1.532020 2.459221 -2.660949
v -1.493223 2.189897 -2.920469
v -1.610028 2.459221 -2.602526
v -1.571231 2.189897 -2.862046
v -1.610028 2.459221 -2.660949
v -1.571231 2.189897 -2.920469
v -2.850000 2.587417 2.489837
v -2.326591 2.587417 2.489837
v -2.850000 2.650616 2.489837
v -2.326591 2.650616 2.489837
v -2.850000 2.587417 -1.578908
v -2.326591 2.587417 -1.578908
v -2.850000 2.650616 -1.578908
v -2.326591 2.650616 -1.578908
v -2.418200 2.587418 2.206855
v -2.897565 2.134863 2.204782
v -2.418200 2.587418 2.091855
v -2.897565 2.134863 2.089782
v -2.519965 2.587418 2.206855
v -2.999330 2.134863 2.204782
v -2.519965 2.587418 2.091855
v -2.999330 2.134863 2.089782
v -2.375562 2.586418 -1.123646
v -2.854926 2.133863 -1.125719
v -2.375562 2.586418 -1.238647
v -2.854926 2.133863 -1.240720
v -2.477326 2.586418 -1.123646
v -2.956691 2.133863 -1.125719
v -2.477326 2.586418 -1.238647
v -2.956691 2.133863 -1.240720
v -2.084406 1.752792 0.995715
v -2.084406 2.647208 0.995715
v -2.084406 1.752792 -0.654682
v -2.084406 2.647208 -0.654682
v -2.006311 1.752792 0.995715
v -2.006311 2.647208 0.995715
v -2.006311 1.752792 -0.654682
v -2.006311 2.647208 -0.654682
v -2.195972 1.396759 0.478649
v -2.195972 1.415171 0.478649
v -2.195972 1.396759 -0.204361
v -2.195972 1.415171 -0.204361
v -1.914992 1.396759 0.478649
v -1.914992 1.415171 0.478649
v -1.914992 1.396759 -0.204361
v -1.914992 1.415171 -0.204361
v -2.004985 1.752792 0.202811
v -2.004985 1.417795 0.202811
v -2.004985 1.752792 0.097189
v -2.004985 1.417795 0.097189
v -2.084023 1.752792 0.202811
v -2.084023 1.417795 0.202811
v -2.084023 1.752792 0.097189
v -2.084023 1.417795 0.097189
v -2.517082 0.150000 2.545650
v -2.517082 0.994137 2.545650
v -2.517082 0.150000 2.107532
v -2.517082 0.994137 2.107532
v -1.513782 0.177199 2.518451
v -1.540980 0.150000 2.545650
v -1.540980 0.994137 2.545650
v -1.513782 0.966939 2.518451
v -1.513782 0.177199 2.134731
v -1.540980 0.150000 2.107532
v -1.513782 0.966939 2.134731
v -1.540980 0.994137 2.107532
v -0.836954 0.200065 -1.767687
v -0.836954 1.075731 -1.767687
v -0.887019 0.150000 -2.689056
v -0.887019 1.125796 -2.689056
v -0.019488 0.200065 -1.767687
v -0.019488 1.075731 -1.767687
v 0.030577 0.150000 -2.689056
v 0.030577 1.125796 -2.689056
v -0.887019 0.150000 -1.767687
v -0.887019 1.125796 -1.767687
v 0.030577 1.125796 -1.767687
v 0.030577 0.150000 -1.767687
v -0.836954 0.200065 -2.367687
v -0.836954 1.075731 -2.367687
v -0.019488 1.075731 -2.367687
v -0.019488 0.200065 -2.367687
v -0.029292 0.823628 -2.367687
v -0.029292 0.823628 -1.799417
v -0.816685 0.823628 -2.367687
v -0.816685 0.823628 -1.799417
v -0.029292 0.846319 -2.367687
v -0.029292 0.846319 -1.799417
v -0.816685 0.846319 -2.367687
v -0.816685 0.846319 -1.799417
v -0.026869 0.391464 -2.367688
v -0.026869 0.391464 -1.800737
v -0.826629 0.391464 -2.367688
v -0.826629 0.391464 -1.800737
v -0.026869 0.418315 -2.367688
v -0.026869 0.418315 -1.800737
v -0.826629 0.418315 -2.367688
v -0.826629 0.418315 -1.800737
v -0.288061 0.156563 -1.256104
v -0.288061 0.156563 -1.212739
v -0.880722 0.153625 -1.767687
v -0.880722 0.153625 -1.724322
v -0.288061 1.127741 -1.256104
v -0.288061 1.127741 -1.212739
v -0.880722 1.124804 -1.767687
v -0.880722 1.124804 -1.724322
v -0.550773 0.418314 -2.044475
v -0.550773 0.677986 -2.044475
v -0.538640 0.418314 -2.043399
v -0.538640 0.677986 -2.043399
v -0.526973 0.418314 -2.040213
v -0.526973 0.677986 -2.040213
v -0.516220 0.418314 -2.035038
v -0.516220 0.677986 -2.035038
v -0.506795 0.418314 -2.028075
v -0.506796 0.677986 -2.028075
v -0.499061 0.418314 -2.019590
v -0.499061 0.677986 -2.019590
v -0.493313 0.418314 -2.009909
v -0.493314 0.677986 -2.009909
v -0.489774 0.418314 -1.999405
v -0.489774 0.677986 -1.999405
v -0.488579 0.418314 -1.988481
v -0.488579 0.677986 -1.988481
v -0.489774 0.418314 -1.977557
v -0.489774 0.677986 -1.977557
v -0.493313 0.418314 -1.967053
v -0.493314 0.677986 -1.967053
v -0.499061 0.418314 -1.957372
v -0.499061 0.677986 -1.957372
v -0.506795 0.418314 -1.948887
v -0.506796 0.677986 -1.948887
v -0.516220 0.418314 -1.941923
v -0.516220 0.677986 -1.941923
v -0.526973 0.418314 -1.936749
v -0.526973 0.677986 -1.936749
v -0.538640 0.418314 -1.933563
v -0.538640 0.677986 -1.933563
v -0.550773 0.418314 -1.932487
v -0.550773 0.677986 -1.932487
v -0.562907 0.418314 -1.933563
v -0.562907 0.677986 -1.933563
v -0.574574 0.418314 -1.936749
v -0.574574 0.677986 -1.936749
v -0.585327 0.418314 -1.941923
v -0.585327 0.677986 -1.941923
v -0.594751 0.418314 -1.948887
v -0.594751 0.677986 -1.948887
v -0.602486 0.418314 -1.957372
v -0.602486 0.677986 -1.957372
v -0.608233 0.418314 -1.967053
v -0.608233 0.677986 -1.967053
v -0.611772 0.418314 -1.977557
v -0.611772 0.677986 -1.977557
v -0.612967 0.418314 -1.988481
v -0.612967 0.677986 -1.988481
v -0.611772 0.418314 -1.999405
v -0.611772 0.677986 -1.999405
v -0.608233 0.418314 -2.009909
v -0.608233 0.677986 -2.009909
v -0.602486 0.418314 -2.019590
v -0.602486 0.677986 -2.019590
v -0.594751 0.418314 -2.028075
v -0.594751 0.677986 -2.028075
v -0.585327 0.418314 -2.035038
v -0.585327 0.677986 -2.035038
v -0.574574 0.418314 -2.040213
v -0.574574 0.677986 -2.040213
v -0.562907 0.418314 -2.043399
v -0.562907 0.677986 -2.043399
v -0.278907 0.418315 -2.092796
v -0.278907 0.638303 -2.092796
v -0.267930 0.418315 -2.091624
v -0.267930 0.638303 -2.091624
v -0.257375 0.418315 -2.088153
v -0.257375 0.638303 -2.088153
v -0.247648 0.418315 -2.082517
v -0.247648 0.638303 -2.082517
v -0.239122 0.418315 -2.074932
v -0.239122 0.638303 -2.074932
v -0.232124 0.418315 -2.065690
v -0.232124 0.638303 -2.065690
v -0.226925 0.418315 -2.055145
v -0.226925 0.638303 -2.055145
v -0.223723 0.418315 -2.043704
v -0.223723 0.638303 -2.043704
v -0.222642 0.418315 -2.031805
v -0.222642 0.638303 -2.031805
v -0.223723 0.418315 -2.019907
v -0.223723 0.638303 -2.019907
v -0.226925 0.418315 -2.008465
v -0.226925 0.638303 -2.008465
v -0.232124 0.418315 -1.997921
v -0.232124 0.638303 -1.997921
v -0.239122 0.418315 -1.988678
v -0.239122 0.638303 -1.988678
v -0.247648 0.418315 -1.981093
v -0.247648 0.638303 -1.981093
v -0.257375 0.418315 -1.975457
v -0.257375 0.638303 -1.975457
v -0.267930 0.418315 -1.971986
v -0.267930 0.638303 -1.971986
v -0.278907 0.418315 -1.970814
v -0.278907 0.638303 -1.970814
v -0.289883 0.418315 -1.971986
v -0.289883 0.638303 -1.971986
v -0.300438 0.418315 -1.975457
v -0.300438 0.638303 -1.975457
v -0.310165 0.418315 -1.981093
v -0.310166 0.638303 -1.981093
v -0.318692 0.418315 -1.988678
v -0.318692 0.638303 -1.988678
v -0.325689 0.418315 -1.997921
v -0.325689 0.638303 -1.997921
v -0.330888 0.418315 -2.008465
v -0.330888 0.638303 -2.008465
v -0.334090 0.418315 -2.019907
v -0.334090 0.638303 -2.019907
v -0.335171 0.418315 -2.031805
v -0.335171 0.638303 -2.031805
v -0.334090 0.418315 -2.043704
v -0.334090 0.638303 -2.043704
v -0.330888 0.418315 -2.055145
v -0.330888 0.638303 -2.055145
v -0.325689 0.418315 -2.065690
v -0.325689 0.638303 -2.065690
v -0.318692 0.418315 -2.074932
v -0.318692 0.638303 -2.074932
v -0.310165 0.418315 -2.082517
v -0.310166 0.638303 -2.082517
v -0.300438 0.418315 -2.088153
v -0.300438 0.638303 -2.088153
v -0.289883 0.418315 -2.091624
v -0.289883 0.638303 -2.091624
v -0.532763 0.846319 -2.149380
v -0.532763 1.051316 -2.149380
v -0.521410 0.846319 -2.148221
v -0.521410 1.051316 -2.148221
v -0.510493 0.846319 -2.144791
v -0.510493 1.051316 -2.144791
v -0.500432 0.846319 -2.139221
v -0.500432 1.051316 -2.139221
v -0.491613 0.846319 -2.131724
v -0.491613 1.051316 -2.131724
v -0.484376 0.846319 -2.122590
v -0.484376 1.051316 -2.122590
v -0.478998 0.846319 -2.112168
v -0.478998 1.051316 -2.112168
v -0.475686 0.846319 -2.100860
v -0.475686 1.051316 -2.100860
v -0.474568 0.846319 -2.089100
v -0.474568 1.051316 -2.089100
v -0.475686 0.846319 -2.077340
v -0.475686 1.051316 -2.077340
v -0.478998 0.846319 -2.066032
v -0.478998 1.051316 -2.066032
v -0.484376 0.846319 -2.055611
v -0.484376 1.051316 -2.055611
v -0.491613 0.846319 -2.046476
v -0.491613 1.051316 -2.046476
v -0.500432 0.846319 -2.038980
v -0.500432 1.051316 -2.038980
v -0.510493 0.846319 -2.033409
v -0.510493 1.051316 -2.033409
v -0.521410 0.846319 -2.029979
v -0.521410 1.051316 -2.029979
v -0.532763 0.846319 -2.028821
v -0.532763 1.051316 -2.028821
v -0.544117 0.846319 -2.029979
v -0.544117 1.051316 -2.029979
v -0.555034 0.846319 -2.033409
v -0.555034 1.051316 -2.033409
v -0.565095 0.846319 -2.038980
v -0.565095 1.051316 -2.038980
v -0.573914 0.846319 -2.046476
v -0.573914 1.051316 -2.046476
v -0.581151 0.846319 -2.055611
v -0.581151 1.051316 -2.055611
v -0.586529 0.846319 -2.066032
v -0.586529 1.051316 -2.066032
v -0.589841 0.846319 -2.077340
v -0.589841 1.051316 -2.077340
v -0.590959 0.846319 -2.089100
v -0.590959 1.051316 -2.089100
v -0.589841 0.846319 -2.100860
v -0.589841 1.051316 -2.100860
v -0.586529 0.846319 -2.112168
v -0.586529 1.051316 -2.112168
v -0.581151 0.846319 -2.122590
v -0.581151 1.051316 -2.122590
v -0.573914 0.846319 -2.131724
v -0.573914 1.051316 -2.131724
v -0.565095 0.846319 -2.139221
v -0.565095 1.051316 -2.139221
v -0.555034 0.846319 -2.144791
v -0.555034 1.051316 -2.144791
v -0.544117 0.846319 -2.148221
v -0.544117 1.051316 -2.148221
v -1.944341 1.396759 -0.868784
v -1.944341 1.447097 -0.868784
v -1.944341 1.396759 -1.050754
v -1.944341 1.447097 -1.050754
v -1.636144 1.396759 -0.868784
v -1.636144 1.447097 -0.868784
v -1.636144 1.396759 -1.050754
v -1.636144 1.447097 -1.050754
v -1.793901 1.396759 0.813101
v -1.793901 1.436512 0.813101
v -1.793901 1.396759 -0.423727
v -1.793901 1.436512 -0.423727
v -1.404419 1.396759 0.813101
v -1.404419 1.436512 0.813101
v -1.404419 1.396759 -0.423727
v -1.404419 1.436512 -0.423727
v 1.355935 1.302853 -2.824645
v 2.578282 1.302853 -2.824645
v 1.355934 2.889412 -2.824645
v 2.578282 2.889412 -2.824645
vn -0.0000 -1.0000 -0.0000
vn -0.0000 1.0000 -0.0000
vn -0.0000 -0.0000 -1.0000
vn -0.0000 -0.0000 1.0000
vn 1.0000 -0.0000 -0.0000
vn -1.0000 -0.0000 -0.0000
vn 0.9898 0.1426 -0.0000
vn -0.0000 0.6939 -0.7201
vn -0.9898 -0.1426 -0.0000
vn -0.0000 -0.6939 0.7201
vn 0.6865 -0.7271 -0.0000
vn -0.0000 0.0046 -1.0000
vn -0.6865 0.7271 -0.0000
vn -0.0000 -0.0046 1.0000
vn 0.7071 -0.0000 -0.7071
vn 0.7071 -0.7071 -0.0000
vn 0.7071 0.7071 -0.0000
vn 0.7071 -0.0000 0.7071
vn 0.0050 -1.0000 -0.0000
vn -0.0050 1.0000 -0.0000
vn 0.6534 -0.0000 -0.7570
vn -0.6534 -0.0000 0.7570
vn 0.0883 -0.0000 -0.9961
vn -0.7973 -0.0000 0.6036
vn 0.9630 -0.0000 0.2695
vn 0.2635 -0.0000 -0.9647
vn -0.6647 -0.0000 0.7471
vn 0.4336 -0.0000 -0.9011
vn 0.5943 -0.0000 -0.8043
vn 0.9959 -0.0000 0.0905
vn 0.7390 -0.0000 -0.6737
vn -0.5013 -0.0000 0.8653
vn 0.8599 -0.0000 -0.5105
vn 0.9477 -0.0000 -0.3193
vn 0.9959 -0.0000 -0.0905
vn 0.9941 -0.0000 -0.1087
vn -0.3124 -0.0000 0.9500
vn 0.9941 -0.0000 0.1087
vn 0.9477 -0.0000 0.3193
vn 0.9630 -0.0000 -0.2695
vn 0.8599 -0.0000 0.5105
vn -0.1062 -0.0000 0.9943
vn 0.7390 -0.0000 0.6737
vn 0.5943 -0.0000 0.8043
vn 0.8969 -0.0000 -0.4423
vn 0.4336 -0.0000 0.9011
vn 0.1062 -0.0000 0.9943
vn 0.2635 -0.0000 0.9647
vn 0.0883 -0.0000 0.9961
vn 0.7973 -0.0000 -0.6036
vn -0.0883 -0.0000 0.9961
vn 0.3124 -0.0000 0.9500
vn -0.2635 -0.0000 0.9647
vn -0.4336 -0.0000 0.9011
vn 0.6647 -0.0000 -0.7471
vn -0.5943 -0.0000 0.8043
vn 0.5013 -0.0000 0.8653
vn -0.7390 -0.0000 0.6737
vn -0.8599 -0.0000 0.5105
vn 0.5013 -0.0000 -0.8653
vn -0.9477 -0.0000 0.3193
vn 0.6647 -0.0000 0.7471
vn -0.9941 -0.0000 0.1088
vn -0.9941 -0.0000 -0.1088
vn 0.3124 -0.0000 -0.9500
vn -0.9477 -0.0000 -0.3193
vn 0.7973 -0.0000 0.6036
vn -0.8599 -0.0000 -0.5105
vn -0.7390 -0.0000 -0.6737
vn 0.1062 -0.0000 -0.9943
vn -0.5943 -0.0000 -0.8043
vn 0.8969 -0.0000 0.4423
vn -0.4336 -0.0000 -0.9011
vn -0.2635 -0.0000 -0.9647
vn -0.0883 -0.0000 -0.9961
vn -0.8969 -0.0000 0.4423
vn -0.9630 -0.0000 0.2695
vn -0.9959 -0.0000 0.0905
vn -0.9959 -0.0000 -0.0905
vn -0.9630 -0.0000 -0.2695
vn -0.8969 -0.0000 -0.4423
vn -0.7973 -0.0000 -0.6036
vn -0.6647 -0.0000 -0.7471
vn -0.5013 -0.0000 -0.8653
vn -0.3124 -0.0000 -0.9500
vn -0.1062 -0.0000 -0.9943
vn 0.1015 -0.0000 -0.9948
vn 0.2998 -0.0000 -0.9540
vn 0.4844 -0.0000 -0.8749
vn 0.6477 -0.0000 -0.7619
vn 0.7838 -0.0000 -0.6210
vn 0.8887 -0.0000 -0.4586
vn 0.9597 -0.0000 -0.2811
vn 0.9955 -0.0000 -0.0947
vn 0.9955 -0.0000 0.0947
vn 0.9597 -0.0000 0.2811
vn 0.8887 -0.0000 0.4586
vn 0.7838 -0.0000 0.6210
vn 0.6477 -0.0000 0.7619
vn 0.4844 -0.0000 0.8749
vn 0.2998 -0.0000 0.9540
vn 0.1015 -0.0000 0.9948
vn -0.1015 -0.0000 0.9948
vn -0.2998 -0.0000 0.9540
vn -0.4844 -0.0000 0.8749
vn -0.6477 -0.0000 0.7619
vn -0.7838 -0.0000 0.6210
vn -0.8887 -0.0000 0.4586
vn -0.9597 -0.0000 0.2811
vn -0.9955 -0.0000 0.0947
vn -0.9955 -0.0000 -0.0947
vn -0.9597 -0.0000 -0.2811
vn -0.8887 -0.0000 -0.4586
vn -0.7838 -0.0000 -0.6210
vn -0.6477 -0.0000 -0.7619
vn -0.4844 -0.0000 -0.8749
vn -0.2998 -0.0000 -0.9540
vn -0.1015 -0.0000 -0.9948
vt 0.000000 0.000000
vt 0.000000 1.000000
vt 1.000000 1.000000
vt 1.000000 0.000000
vt 0.375000 0.000000
vt 0.625000 0.000000
vt 0.625000 0.250000
vt 0.375000 0.250000
vt 0.625000 0.500000
vt 0.375000 0.500000
vt 0.625000 0.750000
vt 0.375000 0.750000
vt 0.625000 1.000000
vt 0.375000 1.000000
vt 0.125000 0.500000
vt 0.125000 0.750000
vt 0.875000 0.500000
vt 0.875000 0.750000
vt 0.369871 1.000000
vt 0.433653 0.750000
vt 0.369871 0.250000
vt 0.369871 0.000000
vt 0.433653 0.500000
vt 0.616945 0.515520
vt 0.383055 0.515520
vt 0.371611 0.496611
vt 0.628389 0.496611
vt 0.371611 0.753389
vt 0.383055 0.734480
vt 0.628389 0.753389
vt 0.616945 0.734480
vt 0.612173 0.763640
vt 0.612173 0.986360
vt 0.387827 0.986360
vt 0.387827 0.763640
vt 1.000000 0.500000
vt 0.968750 1.000000
vt 0.968750 0.500000
vt 0.937500 1.000000
vt 0.937500 0.500000
vt 0.906250 1.000000
vt 0.906250 0.500000
vt 0.875000 1.000000
vt 0.843750 1.000000
vt 0.843750 0.500000
vt 0.812500 1.000000
vt 0.812500 0.500000
vt 0.781250 1.000000
vt 0.781250 0.500000
vt 0.750000 1.000000
vt 0.750000 0.500000
vt 0.718750 1.000000
vt 0.718750 0.500000
vt 0.687500 1.000000
vt 0.687500 0.500000
vt 0.656250 1.000000
vt 0.656250 0.500000
vt 0.593750 1.000000
vt 0.593750 0.500000
vt 0.562500 1.000000
vt 0.562500 0.500000
vt 0.531250 1.000000
vt 0.531250 0.500000
vt 0.500000 1.000000
vt 0.500000 0.500000
vt 0.468750 1.000000
vt 0.468750 0.500000
vt 0.437500 1.000000
vt 0.437500 0.500000
vt 0.406250 1.000000
vt 0.406250 0.500000
vt 0.343750 1.000000
vt 0.343750 0.500000
vt 0.312500 1.000000
vt 0.312500 0.500000
vt 0.281250 1.000000
vt 0.281250 0.500000
vt 0.250000 1.000000
vt 0.250000 0.500000
vt 0.218750 1.000000
vt 0.218750 0.500000
vt 0.187500 1.000000
vt 0.187500 0.500000
vt 0.156250 1.000000
vt 0.156250 0.500000
vt 0.125000 1.000000
vt 0.093750 1.000000
vt 0.093750 0.500000
vt 0.062500 1.000000
vt 0.062500 0.500000
vt 0.296822 0.485388
vt 0.250000 0.490000
vt 0.203178 0.485388
vt 0.158156 0.471731
vt 0.116663 0.449553
vt 0.080294 0.419706
vt 0.050447 0.383337
vt 0.028269 0.341845
vt 0.014612 0.296822
vt 0.010000 0.250000
vt 0.014612 0.203178
vt 0.028269 0.158156
vt 0.050447 0.116663
vt 0.080294 0.080295
vt 0.116663 0.050447
vt 0.158156 0.028269
vt 0.203178 0.014612
vt 0.250000 0.010000
vt 0.296822 0.014612
vt 0.341844 0.028269
vt 0.383337 0.050447
vt 0.419706 0.080295
vt 0.449553 0.116663
vt 0.471731 0.158156
vt 0.485388 0.203178
vt 0.490000 0.250000
vt 0.485388 0.296822
vt 0.471731 0.341845
vt 0.449553 0.383337
vt 0.419706 0.419706
vt 0.383337 0.449553
vt 0.341844 0.471731
vt 0.031250 1.000000
vt 0.031250 0.500000
vt 0.000000 0.500000
vt 0.750000 0.490000
vt 0.796821 0.485388
vt 0.841844 0.471731
vt 0.883337 0.449553
vt 0.919706 0.419706
vt 0.949553 0.383337
vt 0.971731 0.341845
vt 0.985389 0.296822
vt 0.990000 0.250000
vt 0.985389 0.203178
vt 0.971731 0.158156
vt 0.949553 0.116663
vt 0.919706 0.080295
vt 0.883337 0.050447
vt 0.841844 0.028269
vt 0.796821 0.014612
vt 0.750000 0.010000
vt 0.703178 0.014612
vt 0.658156 0.028269
vt 0.616663 0.050447
vt 0.580294 0.080295
vt 0.550447 0.116663
vt 0.528269 0.158156
vt 0.514611 0.203178
vt 0.510000 0.250000
vt 0.514611 0.296822
vt 0.528269 0.341845
vt 0.550447 0.383337
vt 0.580294 0.419706
vt 0.616663 0.449553
vt 0.658156 0.471731
vt 0.703178 0.485388
vt 0.971731 0.158157
vt 0.949553 0.116664
vt 0.919705 0.080295
vt 0.796822 0.014612
vt 0.658156 0.028269
vt 0.616663 0.050447
vt 0.580294 0.080295
vt 0.550447 0.116664
vt 0.528269 0.158157
vt 0.514611 0.203179
vt 0.528269 0.341844
vt 0.550447 0.383336
vt 0.580294 0.419706
vt 0.616663 0.449553
vt 0.658156 0.471732
vt 0.750000 0.490001
vt 0.796822 0.485388
vt 0.841844 0.471732
vt 0.919705 0.419706
vt 0.949553 0.383336
vt 0.971731 0.341844
vt 0.985388 0.296822
vt 0.990000 0.250000
vt 0.985388 0.203179
vt 0.050447 0.116664
vt 0.080294 0.080295
vt 0.116663 0.050447
vt 0.158156 0.028269
vt 0.203178 0.014612
vt 0.250000 0.010000
vt 0.296821 0.014612
vt 0.341844 0.028269
vt 0.383337 0.050447
vt 0.419705 0.080295
vt 0.449553 0.116664
vt 0.471731 0.158157
vt 0.485388 0.203179
vt 0.490000 0.250000
vt 0.485388 0.296822
vt 0.471731 0.341844
vt 0.449553 0.383336
vt 0.419705 0.419706
vt 0.383337 0.449553
vt 0.341844 0.471732
vt 0.296821 0.485388
vt 0.250000 0.490001
vt 0.203178 0.485388
vt 0.158156 0.471732
vt 0.116663 0.449553
vt 0.080294 0.419706
vt 0.050447 0.383336
vt 0.028269 0.341844
vt 0.014611 0.296822
vt 0.010000 0.250000
vt 0.014611 0.203179
vt 0.028269 0.158157
vt 0.250000 0.490000
vt 0.158156 0.471731
vt 0.116663 0.449553
vt 0.080294 0.419705
vt 0.028269 0.158156
vt 0.080294 0.080294
vt 0.116663 0.050447
vt 0.341844 0.028269
vt 0.383337 0.050447
vt 0.419706 0.080294
vt 0.449552 0.116664
vt 0.471731 0.158156
vt 0.485388 0.203178
vt 0.490000 0.250000
vt 0.485388 0.296822
vt 0.471731 0.341844
vt 0.449552 0.383336
vt 0.419706 0.419705
vt 0.383337 0.449553
vt 0.341844 0.471731
vt 0.919706 0.419705
vt 0.949552 0.383336
vt 0.971731 0.341844
vt 0.990000 0.250000
vt 0.985388 0.203178
vt 0.949552 0.116664
vt 0.919706 0.080294
vt 0.703178 0.014612
vt 0.580294 0.080294
vt 0.528269 0.158156
vt 0.514611 0.203178
vt 0.514611 0.296822
vt 0.580294 0.419705
vt 0.703178 0.485388
s 0
f 1/1/1 3/2/1 4/3/1 2/4/1
f 6/1/2 7/4/2 8/3/2 5/2/2
f 4/3/3 3/2/3 5/2/3 8/3/3
f 1/1/4 2/4/4 7/4/4 6/1/4
f 2/4/5 4/3/5 8/3/5 7/4/5
f 3/2/6 1/1/6 6/1/6 5/2/6
f 11/1/3 5/1/3 13/1/3 18/1/3
f 8/3/3 5/2/3 13/2/3 15/3/3
f 15/3/2 13/2/2 17/2/2 16/3/2
f 13/2/2 14/1/2 19/1/2 18/2/2
f 5/1/6 9/1/6 17/1/6 13/1/6
f 9/1/4 10/1/4 16/1/4 17/1/4
f 6/1/4 12/1/4 19/1/4 14/1/4
f 12/1/5 11/1/5 18/1/5 19/1/5
f 5/2/6 6/1/6 14/1/6 13/2/6
f 10/1/5 8/1/5 15/1/5 16/1/5
f 20/5/4 21/6/4 23/7/4 22/8/4
f 22/8/2 23/7/2 27/9/2 26/10/2
f 26/10/3 27/9/3 25/11/3 24/12/3
f 24/12/1 25/11/1 21/13/1 20/14/1
f 22/15/6 26/10/6 24/12/6 20/16/6
f 27/9/5 23/17/5 21/18/5 25/11/5
f 28/5/4 29/6/4 31/7/4 30/8/4
f 30/8/2 31/7/2 35/9/2 34/10/2
f 34/10/3 35/9/3 33/11/3 32/12/3
f 32/12/1 33/11/1 29/13/1 28/14/1
f 30/15/6 34/10/6 32/12/6 28/16/6
f 35/9/5 31/17/5 29/18/5 33/11/5
f 36/5/5 37/6/5 39/7/5 38/8/5
f 38/8/3 39/7/3 43/9/3 42/10/3
f 42/10/6 43/9/6 41/11/6 40/12/6
f 40/12/4 41/11/4 37/13/4 36/14/4
f 38/15/2 42/10/2 40/12/2 36/16/2
f 43/9/1 39/17/1 37/18/1 41/11/1
f 44/5/5 45/6/5 47/7/5 46/8/5
f 46/8/3 47/7/3 51/9/3 50/10/3
f 50/10/6 51/9/6 49/11/6 48/12/6
f 48/12/4 49/11/4 45/13/4 44/14/4
f 46/15/2 50/10/2 48/12/2 44/16/2
f 51/9/1 47/17/1 45/18/1 49/11/1
f 52/5/5 53/6/5 55/7/5 54/8/5
f 54/8/3 55/7/3 59/9/3 58/10/3
f 58/10/6 59/9/6 57/11/6 56/12/6
f 56/12/4 57/11/4 53/13/4 52/14/4
f 54/15/2 58/10/2 56/12/2 52/16/2
f 59/9/1 55/17/1 53/18/1 57/11/1
f 60/5/5 61/6/5 63/7/5 62/8/5
f 62/8/3 63/7/3 67/9/3 66/10/3
f 66/10/6 67/9/6 65/11/6 64/12/6
f 64/12/4 65/11/4 61/13/4 60/14/4
f 62/15/2 66/10/2 64/12/2 60/16/2
f 67/9/1 63/17/1 61/18/1 65/11/1
f 75/5/1 73/6/1 69/7/1 71/8/1
f 80/8/5 81/7/5 73/9/5 75/10/5
f 82/10/2 83/9/2 81/11/2 80/12/2
f 71/12/6 69/11/6 83/13/6 82/14/6
f 74/10/6 70/8/6 416/8/6 418/10/6
f 71/15/3 82/10/3 80/12/3 75/16/3
f 72/12/5 68/14/5 76/19/5 78/20/5
f 68/5/1 70/8/1 77/21/1 76/22/1
f 70/8/6 74/10/6 79/23/6 77/21/6
f 74/10/2 72/12/2 78/20/2 79/23/2
f 83/9/4 69/17/4 73/18/4 81/11/4
f 84/5/1 85/6/1 87/7/1 86/8/1
f 86/8/6 87/7/6 91/9/6 90/10/6
f 90/10/2 91/9/2 89/11/2 88/12/2
f 88/12/5 89/11/5 85/13/5 84/14/5
f 86/15/3 90/10/3 88/12/3 84/16/3
f 91/9/4 87/17/4 85/18/4 89/11/4
f 92/5/7 93/6/7 95/7/7 94/8/7
f 94/8/8 95/7/8 99/9/8 98/10/8
f 98/10/9 99/9/9 97/11/9 96/12/9
f 96/12/10 97/11/10 93/13/10 92/14/10
f 94/15/2 98/10/2 96/12/2 92/16/2
f 99/9/1 95/17/1 93/18/1 97/11/1
f 100/5/7 101/6/7 103/7/7 102/8/7
f 102/8/8 103/7/8 107/9/8 106/10/8
f 106/10/9 107/9/9 105/11/9 104/12/9
f 104/12/10 105/11/10 101/13/10 100/14/10
f 102/15/2 106/10/2 104/12/2 100/16/2
f 107/9/1 103/17/1 101/18/1 105/11/1
f 108/5/4 109/6/4 111/7/4 110/8/4
f 110/8/2 111/7/2 115/9/2 114/10/2
f 114/10/3 115/9/3 113/11/3 112/12/3
f 112/12/1 113/11/1 109/13/1 108/14/1
f 110/15/6 114/10/6 112/12/6 108/16/6
f 115/9/5 111/17/5 109/18/5 113/11/5
f 116/5/11 117/6/11 119/7/11 118/8/11
f 118/8/12 119/7/12 123/9/12 122/10/12
f 122/10/13 123/9/13 121/11/13 120/12/13
f 120/12/14 121/11/14 117/13/14 116/14/14
f 118/15/2 122/10/2 120/12/2 116/16/2
f 123/9/1 119/17/1 117/18/1 121/11/1
f 124/5/11 125/6/11 127/7/11 126/8/11
f 126/8/12 127/7/12 131/9/12 130/10/12
f 130/10/13 131/9/13 129/11/13 128/12/13
f 128/12/14 129/11/14 125/13/14 124/14/14
f 126/15/2 130/10/2 128/12/2 124/16/2
f 131/9/1 127/17/1 125/18/1 129/11/1
f 132/5/6 133/6/6 135/7/6 134/8/6
f 134/8/3 135/7/3 139/9/3 138/10/3
f 138/10/5 139/9/5 137/11/5 136/12/5
f 136/12/4 137/11/4 133/13/4 132/14/4
f 134/15/1 138/10/1 136/12/1 132/16/1
f 139/9/2 135/17/2 133/18/2 137/11/2
f 140/5/6 141/6/6 143/7/6 142/8/6
f 142/8/3 143/7/3 147/9/3 146/10/3
f 146/10/5 147/9/5 145/11/5 144/12/5
f 144/12/4 145/11/4 141/13/4 140/14/4
f 142/15/1 146/10/1 144/12/1 140/16/1
f 147/9/2 143/17/2 141/18/2 145/11/2
f 148/5/5 149/6/5 151/7/5 150/8/5
f 150/8/3 151/7/3 155/9/3 154/10/3
f 154/10/6 155/9/6 153/11/6 152/12/6
f 152/12/4 153/11/4 149/13/4 148/14/4
f 150/15/2 154/10/2 152/12/2 148/16/2
f 155/9/1 151/17/1 149/18/1 153/11/1
f 156/5/6 157/6/6 159/7/6 158/8/6
f 166/24/15 164/25/15 165/26/15 167/27/15
f 161/28/16 165/26/16 164/25/16 160/29/16
f 167/27/17 162/30/17 163/31/17 166/24/17
f 162/30/18 161/28/18 160/29/18 163/31/18
f 158/15/1 165/26/1 161/28/1 156/16/1
f 164/25/5 166/24/5 163/31/5 160/29/5
f 161/28/4 162/30/4 157/13/4 156/14/4
f 167/27/2 159/17/2 157/18/2 162/30/2
f 158/8/3 159/7/3 167/27/3 165/26/3
f 176/5/6 177/6/6 171/7/6 170/8/6
f 170/8/3 171/7/3 175/9/3 174/10/3
f 174/10/5 175/9/5 178/11/5 179/12/5
f 173/32/1 169/33/1 181/33/1 182/32/1
f 170/15/1 174/10/1 179/12/1 176/16/1
f 175/9/2 171/17/2 177/18/2 178/11/2
f 168/34/4 169/33/4 177/13/4 176/14/4
f 173/32/4 172/35/4 179/12/4 178/11/4
f 172/35/4 168/34/4 176/14/4 179/12/4
f 169/33/4 173/32/4 178/11/4 177/13/4
f 183/35/4 182/32/4 181/33/4 180/34/4
f 172/35/6 173/32/6 182/32/6 183/35/6
f 168/34/2 172/35/2 183/35/2 180/34/2
f 169/33/5 168/34/5 180/34/5 181/33/5
f 184/5/1 185/6/1 187/7/1 186/8/1
f 186/8/6 187/7/6 191/9/6 190/10/6
f 190/10/2 191/9/2 189/11/2 188/12/2
f 188/12/5 189/11/5 185/13/5 184/14/5
f 186/15/3 190/10/3 188/12/3 184/16/3
f 191/9/4 187/17/4 185/18/4 189/11/4
f 192/5/1 193/6/1 195/7/1 194/8/1
f 194/8/6 195/7/6 199/9/6 198/10/6
f 198/10/2 199/9/2 197/11/2 196/12/2
f 196/12/5 197/11/5 193/13/5 192/14/5
f 194/15/3 198/10/3 196/12/3 192/16/3
f 199/9/4 195/17/4 193/18/4 197/11/4
f 200/5/19 201/6/19 203/7/19 202/8/19
f 202/8/6 203/7/6 207/9/6 206/10/6
f 206/10/20 207/9/20 205/11/20 204/12/20
f 204/12/5 205/11/5 201/13/5 200/14/5
f 202/15/21 206/10/21 204/12/21 200/16/21
f 207/9/22 203/17/22 201/18/22 205/11/22
f 208/36/23 209/3/23 211/37/23 210/38/23
f 312/36/24 313/3/24 315/37/24 314/38/24
f 290/38/25 291/37/25 293/39/25 292/40/25
f 210/38/26 211/37/26 213/39/26 212/40/26
f 310/40/27 311/39/27 313/41/27 312/42/27
f 212/40/28 213/39/28 215/41/28 214/42/28
f 214/42/29 215/41/29 217/43/29 216/17/29
f 288/42/30 289/41/30 291/43/30 290/17/30
f 216/17/31 217/43/31 219/44/31 218/45/31
f 308/17/32 309/43/32 311/44/32 310/45/32
f 218/45/33 219/44/33 221/46/33 220/47/33
f 220/47/34 221/46/34 223/48/34 222/49/34
f 286/45/35 287/44/35 289/46/35 288/47/35
f 222/49/36 223/48/36 225/50/36 224/51/36
f 306/47/37 307/46/37 309/48/37 308/49/37
f 224/51/38 225/50/38 227/52/38 226/53/38
f 226/53/39 227/52/39 229/54/39 228/55/39
f 284/49/40 285/48/40 287/50/40 286/51/40
f 228/55/41 229/54/41 231/56/41 230/57/41
f 304/51/42 305/50/42 307/52/42 306/53/42
f 230/57/43 231/56/43 233/13/43 232/9/43
f 232/9/44 233/13/44 235/58/44 234/59/44
f 282/53/45 283/52/45 285/54/45 284/55/45
f 234/59/46 235/58/46 237/60/46 236/61/46
f 302/55/47 303/54/47 305/56/47 304/57/47
f 236/61/48 237/60/48 239/62/48 238/63/48
f 238/63/49 239/62/49 241/64/49 240/65/49
f 280/57/50 281/56/50 283/13/50 282/9/50
f 240/65/51 241/64/51 243/66/51 242/67/51
f 300/9/52 301/13/52 303/58/52 302/59/52
f 242/67/53 243/66/53 245/68/53 244/69/53
f 244/69/54 245/68/54 247/70/54 246/71/54
f 278/59/55 279/58/55 281/60/55 280/61/55
f 246/71/56 247/70/56 249/14/56 248/10/56
f 298/61/57 299/60/57 301/62/57 300/63/57
f 248/10/58 249/14/58 251/72/58 250/73/58
f 250/73/59 251/72/59 253/74/59 252/75/59
f 276/63/60 277/62/60 279/64/60 278/65/60
f 252/75/61 253/74/61 255/76/61 254/77/61
f 296/65/62 297/64/62 299/66/62 298/67/62
f 254/77/63 255/76/63 257/78/63 256/79/63
f 256/79/64 257/78/64 259/80/64 258/81/64
f 274/67/65 275/66/65 277/68/65 276/69/65
f 258/81/66 259/80/66 261/82/66 260/83/66
f 294/69/67 295/68/67 297/70/67 296/71/67
f 260/83/68 261/82/68 263/84/68 262/85/68
f 262/85/69 263/84/69 265/86/69 264/15/69
f 272/71/70 273/70/70 275/14/70 274/10/70
f 264/15/71 265/86/71 267/87/71 266/88/71
f 292/10/72 293/14/72 295/72/72 294/73/72
f 266/88/73 267/87/73 269/89/73 268/90/73
f 211/91/2 209/92/2 271/93/2 269/94/2 267/95/2 265/96/2 263/97/2 261/98/2 259/99/2 257/100/2 255/101/2 253/102/2 251/103/2 249/104/2 247/105/2 245/106/2 243/107/2 241/108/2 239/109/2 237/110/2 235/111/2 233/112/2 231/113/2 229/114/2 227/115/2 225/116/2 223/117/2 221/118/2 219/119/2 217/120/2 215/121/2 213/122/2
f 268/90/74 269/89/74 271/123/74 270/124/74
f 270/124/75 271/123/75 209/2/75 208/125/75
f 208/126/1 210/127/1 212/128/1 214/129/1 216/130/1 218/131/1 220/132/1 222/133/1 224/134/1 226/135/1 228/136/1 230/137/1 232/138/1 234/139/1 236/140/1 238/141/1 240/142/1 242/143/1 244/144/1 246/145/1 248/146/1 250/147/1 252/148/1 254/149/1 256/150/1 258/151/1 260/152/1 262/153/1 264/154/1 266/155/1 268/156/1 270/157/1
f 314/73/76 315/72/76 317/74/76 316/75/76
f 316/75/77 317/74/77 319/76/77 318/77/77
f 318/77/78 319/76/78 321/78/78 320/79/78
f 320/79/79 321/78/79 323/80/79 322/81/79
f 322/81/80 323/80/80 325/82/80 324/83/80
f 324/83/81 325/82/81 327/84/81 326/85/81
f 326/85/82 327/84/82 329/86/82 328/15/82
f 328/15/83 329/86/83 331/87/83 330/88/83
f 330/88/84 331/87/84 333/89/84 332/90/84
f 292/158/1 294/159/1 296/160/1 298/139/1 300/140/1 302/161/1 304/142/1 306/143/1 308/162/1 310/163/1 312/164/1 314/165/1 316/166/1 318/167/1 320/150/1 322/151/1 324/168/1 326/169/1 328/170/1 330/171/1 332/172/1 334/157/1 272/173/1 274/174/1 276/175/1 278/129/1 280/176/1 282/177/1 284/178/1 286/179/1 288/180/1 290/181/1
f 332/90/85 333/89/85 335/123/85 334/124/85
f 334/124/86 335/123/86 273/2/86 272/125/86
f 315/182/2 313/183/2 311/184/2 309/185/2 307/186/2 305/187/2 303/188/2 301/189/2 299/190/2 297/191/2 295/192/2 293/193/2 291/194/2 289/195/2 287/196/2 285/197/2 283/198/2 281/199/2 279/200/2 277/201/2 275/202/2 273/203/2 335/204/2 333/205/2 331/206/2 329/207/2 327/208/2 325/209/2 323/210/2 321/211/2 319/212/2 317/213/2
f 336/36/87 337/3/87 339/37/87 338/38/87
f 338/38/88 339/37/88 341/39/88 340/40/88
f 340/40/89 341/39/89 343/41/89 342/42/89
f 342/42/90 343/41/90 345/43/90 344/17/90
f 344/17/91 345/43/91 347/44/91 346/45/91
f 346/45/92 347/44/92 349/46/92 348/47/92
f 348/47/93 349/46/93 351/48/93 350/49/93
f 350/49/94 351/48/94 353/50/94 352/51/94
f 352/51/95 353/50/95 355/52/95 354/53/95
f 354/53/96 355/52/96 357/54/96 356/55/96
f 356/55/97 357/54/97 359/56/97 358/57/97
f 358/57/98 359/56/98 361/13/98 360/9/98
f 360/9/99 361/13/99 363/58/99 362/59/99
f 362/59/100 363/58/100 365/60/100 364/61/100
f 364/61/101 365/60/101 367/62/101 366/63/101
f 366/63/102 367/62/102 369/64/102 368/65/102
f 368/65/103 369/64/103 371/66/103 370/67/103
f 370/67/104 371/66/104 373/68/104 372/69/104
f 372/69/105 373/68/105 375/70/105 374/71/105
f 374/71/106 375/70/106 377/14/106 376/10/106
f 376/10/107 377/14/107 379/72/107 378/73/107
f 378/73/108 379/72/108 381/74/108 380/75/108
f 380/75/109 381/74/109 383/76/109 382/77/109
f 382/77/110 383/76/110 385/78/110 384/79/110
f 384/79/111 385/78/111 387/80/111 386/81/111
f 386/81/112 387/80/112 389/82/112 388/83/112
f 388/83/113 389/82/113 391/84/113 390/85/113
f 390/85/114 391/84/114 393/86/114 392/15/114
f 392/15/115 393/86/115 395/87/115 394/88/115
f 394/88/116 395/87/116 397/89/116 396/90/116
f 339/202/2 337/214/2 399/93/2 397/215/2 395/216/2 393/217/2 391/208/2 389/209/2 387/99/2 385/211/2 383/101/2 381/218/2 379/182/2 377/219/2 375/220/2 373/185/2 371/107/2 369/187/2 367/188/2 365/221/2 363/222/2 361/223/2 359/224/2 357/225/2 355/226/2 353/227/2 351/228/2 349/229/2 347/230/2 345/231/2 343/232/2 341/233/2
f 396/90/117 397/89/117 399/123/117 398/124/117
f 398/124/118 399/123/118 337/2/118 336/125/118
f 336/126/1 338/127/1 340/128/1 342/129/1 344/234/1 346/235/1 348/236/1 350/179/1 352/237/1 354/238/1 356/136/1 358/239/1 360/240/1 362/139/1 364/140/1 366/141/1 368/142/1 370/241/1 372/144/1 374/145/1 376/242/1 378/165/1 380/243/1 382/244/1 384/150/1 386/245/1 388/168/1 390/169/1 392/246/1 394/155/1 396/156/1 398/247/1
f 400/5/6 401/6/6 403/7/6 402/8/6
f 402/8/3 403/7/3 407/9/3 406/10/3
f 406/10/5 407/9/5 405/11/5 404/12/5
f 404/12/4 405/11/4 401/13/4 400/14/4
f 402/15/1 406/10/1 404/12/1 400/16/1
f 407/9/2 403/17/2 401/18/2 405/11/2
f 408/5/6 409/6/6 411/7/6 410/8/6
f 410/8/3 411/7/3 415/9/3 414/10/3
f 414/10/5 415/9/5 413/11/5 412/12/5
f 412/12/4 413/11/4 409/13/4 408/14/4
f 410/15/1 414/10/1 412/12/1 408/16/1
f 415/9/2 411/17/2 409/18/2 413/11/2
f 416/15/4 417/16/4 419/12/4 418/10/4
f 70/8/1 68/5/1 417/5/1 416/8/1
f 72/12/2 74/10/2 418/10/2 419/12/2
f 68/14/5 72/12/5 419/12/5 417/14/5
