# Blender 5.2.0 LTS
# www.blender.org
mtllib Room.mtl
o Plane
v -3.000000 0.000000 3.000000
v 3.000000 0.000000 3.000000
v -3.000000 0.000000 -3.000000
v 3.000000 0.000000 -3.000000
v -3.000000 0.150000 -3.000000
v -3.000000 0.150000 3.000000
v 3.000000 0.150000 3.000000
v 3.000000 0.150000 -3.000000
v -3.000000 0.150000 -2.850000
v 3.000000 0.150000 -2.850000
v -2.850000 0.150000 -3.000000
v -2.850000 0.150000 3.000000
v -3.000000 3.150000 -3.000000
v -3.000000 3.150000 3.000000
v 3.000000 3.150000 -3.000000
v 3.000000 3.150000 -2.850000
v -3.000000 3.150000 -2.850000
v -2.850000 3.150000 -3.000000
v -2.850000 3.150000 3.000000
v -2.850001 1.229492 2.820693
v -1.235622 1.229492 2.820693
v -2.850001 1.396759 2.820693
v -1.235622 1.396759 2.820693
v -2.850001 1.229492 -2.843421
v -1.235622 1.229492 -2.843421
v -2.850001 1.396759 -2.843421
v -1.235622 1.396759 -2.843421
v -1.235623 1.234930 -1.620566
v 0.259977 1.234930 -1.620566
v -1.235623 1.395330 -1.620566
v 0.259977 1.395330 -1.620566
v -1.235623 1.234930 -2.837903
v 0.259977 1.234930 -2.837903
v -1.235623 1.395330 -2.837903
v 0.259977 1.395330 -2.837903
v -1.361443 1.229492 2.739209
v -1.361443 0.159921 2.739209
v -1.361443 1.229492 2.661627
v -1.361443 0.159921 2.661627
v -1.460947 1.229492 2.739209
v -1.460948 0.159921 2.739209
v -1.460947 1.229492 2.661627
v -1.460948 0.159921 2.661627
v -2.642058 1.228009 2.770602
v -2.642058 0.158438 2.770602
v -2.642058 1.228009 2.693020
v -2.642058 0.158438 2.693020
v -2.741562 1.228009 2.770602
v -2.741562 0.158438 2.770602
v -2.741562 1.228009 2.693020
v -2.741562 0.158438 2.693020
v 0.220778 1.234930 -1.700162
v 0.220777 0.157089 -1.700162
v 0.220778 1.234930 -1.775244
v 0.220777 0.157089 -1.775244
v 0.133692 1.234930 -1.700162
v 0.133691 0.157089 -1.700162
v 0.133692 1.234930 -1.775244
v 0.133691 0.157089 -1.775244
v 0.186238 1.237838 -2.692349
v 0.186238 0.159996 -2.692349
v 0.186238 1.237838 -2.767431
v 0.186238 0.159996 -2.767431
v 0.099152 1.237838 -2.692349
v 0.099152 0.159996 -2.692349
v 0.099152 1.237838 -2.767431
v 0.099152 0.159996 -2.767431
v 2.578282 1.302853 -2.850000
v -1.858950 1.947858 -2.808701
v 1.355935 1.302853 -2.850000
v -1.858950 1.947858 -2.849999
v 2.578282 2.889412 -2.850000
v 0.897388 1.947858 -2.808701
v 1.355934 2.889412 -2.850000
v 0.897388 1.947858 -2.850000
v 2.545149 1.335986 -2.817533
v 2.578282 1.302853 -2.850667
v 1.389068 1.335986 -2.817533
v 1.355935 1.302853 -2.850667
v 2.545149 2.856279 -2.817533
v 2.578282 2.889412 -2.850667
v 1.389067 2.856279 -2.817533
v 1.355934 2.889412 -2.850667
v 0.897388 2.938960 -2.850000
v 0.897388 2.938960 -2.808701
v -1.858950 2.938960 -2.849999
v -1.858950 2.938960 -2.808701
v 0.833250 2.456366 -2.808701
v 0.833250 2.456366 -2.522479
v -1.785163 2.456366 -2.808701
v -1.785163 2.456366 -2.522479
v 0.833250 2.505278 -2.808701
v 0.833250 2.505278 -2.522479
v -1.785163 2.505277 -2.808701
v -1.785163 2.505277 -2.522479
v 0.677253 2.456366 -2.552640
v 0.716051 2.187042 -2.812160
v 0.677253 2.456366 -2.611062
v 0.716051 2.187042 -2.870583
v 0.599246 2.456366 -2.552640
v 0.638043 2.187042 -2.812160
v 0.599246 2.456366 -2.611062
v 0.638043 2.187042 -2.870583
v -1.532020 2.459221 -2.602526
v -1.493223 2.189897 -2.862046
v -1.532020 2.459221 -2.660949
v -1.493223 2.189897 -2.920469
v -1.610028 2.459221 -2.602526
v -1.571231 2.189897 -2.862046
v -1.610028 2.459221 -2.660949
v -1.571231 2.189897 -2.920469
v -2.850000 2.587417 2.489837
v -2.326591 2.587417 2.489837
v -2.850000 2.650616 2.489837
v -2.326591 2.650616 2.489837
v -2.850000 2.587417 -1.578908
v -2.326591 2.587417 -1.578908
v -2.850000 2.650616 -1.578908
v -2.326591 2.650616 -1.578908
v -2.418200 2.587418 2.206855
v -2.897565 2.134863 2.204782
v -2.418200 2.587418 2.091855
v -2.897565 2.134863 2.089782
v -2.519965 2.587418 2.206855
v -2.999330 2.134863 2.204782
v -2.519965 2.587418 2.091855
v -2.999330 2.134863 2.089782
v -2.375562 2.586418 -1.123646
v -2.854926 2.133863 -1.125719
v -2.375562 2.586418 -1.238647
v -2.854926 2.133863 -1.240720
v -2.477326 2.586418 -1.123646
v -2.956691 2.133863 -1.125719
v -2.477326 2.586418 -1.238647
v -2.956691 2.133863 -1.240720
v -2.084406 1.752792 0.995715
v -2.084406 2.647208 0.995715
v -2.084406 1.752792 -0.654682
v -2.084406 2.647208 -0.654682
v -2.006311 1.752792 0.995715
v -2.006311 2.647208 0.995715
v -2.006311 1.752792 -0.654682
v -2.006311 2.647208 -0.654682
v -2.195972 1.396759 0.478649
v -2.195972 1.415171 0.478649
v -2.195972 1.396759 -0.204361
v -2.195972 1.415171 -0.204361
v -1.914992 1.396759 0.478649
v -1.914992 1.415171 0.478649
v -1.914992 1.396759 -0.204361
v -1.914992 1.415171 -0.204361
v -2.004985 1.752792 0.202811
v -2.004985 1.417795 0.202811
v -2.004985 1.752792 0.097189
v -2.004985 1.417795 0.097189
v -2.084023 1.752792 0.202811
v -2.084023 1.417795 0.202811
v -2.084023 1.752792 0.097189
v -2.084023 1.417795 0.097189
v -2.517082 0.150000 2.545650
v -2.517082 0.994137 2.545650
v -2.517082 0.150000 2.107532
v -2.517082 0.994137 2.107532
v -1.513782 0.177199 2.518451
v -1.540980 0.150000 2.545650
v -1.540980 0.994137 2.545650
v -1.513782 0.966939 2.518451
v -1.513782 0.177199 2.134731
v -1.540980 0.150000 2.107532
v -1.513782 0.966939 2.134731
v -1.540980 0.994137 2.107532
v -0.836954 0.200065 -1.767687
v -0.836954 1.075731 -1.767687
v -0.887019 0.150000 -2.689056
v -0.887019 1.125796 -2.689056
v -0.019488 0.200065 -1.767687
v -0.019488 1.075731 -1.767687
v 0.030577 0.150000 -2.689056
v 0.030577 1.125796 -2.689056
v -0.887019 0.150000 -1.767687
v -0.887019 1.125796 -1.767687
v 0.030577 1.125796 -1.767687
v 0.030577 0.150000 -1.767687
v -0.836954 0.200065 -2.367687
v -0.836954 1.075731 -2.367687
v -0.019488 1.075731 -2.367687
v -0.019488 0.200065 -2.367687
v -0.029292 0.823628 -2.367687
v -0.029292 0.823628 -1.799417
v -0.816685 0.823628 -2.367687
v -0.816685 0.823628 -1.799417
v -0.029292 0.846319 -2.367687
v -0.029292 0.846319 -1.799417
v -0.816685 0.846319 -2.367687
v -0.816685 0.846319 -1.799417
v -0.026869 0.391464 -2.367688
v -0.026869 0.391464 -1.800737
v -0.826629 0.391464 -2.367688
v -0.826629 0.391464 -1.800737
v -0.026869 0.418315 -2.367688
v -0.026869 0.418315 -1.800737
v -0.826629 0.418315 -2.367688
v -0.826629 0.418315 -1.800737
v -0.288061 0.156563 -1.256104
v -0.288061 0.156563 -1.212739
v -0.880722 0.153625 -1.767687
v -0.880722 0.153625 -1.724322
v -0.288061 1.127741 -1.256104
v -0.288061 1.127741 -1.212739
v -0.880722 1.124804 -1.767687
v -0.880722 1.124804 -1.724322
v -0.550773 0.418314 -2.044475
v -0.550773 0.677986 -2.044475
v -0.538640 0.418314 -2.043399
v -0.538640 0.677986 -2.043399
v -0.526973 0.418314 -2.040213
v -0.526973 0.677986 -2.040213
v -0.516220 0.418314 -2.035038
v -0.516220 0.677986 -2.035038
v -0.506795 0.418314 -2.028075
v -0.506796 0.677986 -2.028075
v -0.499061 0.418314 -2.019590
v -0.499061 0.677986 -2.019590
v -0.493313 0.418314 -2.009909
v -0.493314 0.677986 -2.009909
v -0.489774 0.418314 -1.999405
v -0.489774 0.677986 -1.999405
v -0.488579 0.418314 -1.988481
v -0.488579 0.677986 -1.988481
v -0.489774 0.418314 -1.977557
v -0.489774 0.677986 -1.977557
v -0.493313 0.418314 -1.967053
v -0.493314 0.677986 -1.967053
v -0.499061 0.418314 -1.957372
v -0.499061 0.677986 -1.957372
v -0.506795 0.418314 -1.948887
v -0.506796 0.677986 -1.948887
v -0.516220 0.418314 -1.941923
v -0.516220 0.677986 -1.941923
v -0.526973 0.418314 -1.936749
v -0.526973 0.677986 -1.936749
v -0.538640 0.418314 -1.933563
v -0.538640 0.677986 -1.933563
v -0.550773 0.418314 -1.932487
v -0.550773 0.677986 -1.932487
v -0.562907 0.418314 -1.933563
v -0.562907 0.677986 -1.933563
v -0.574574 0.418314 -1.936749
v -0.574574 0.677986 -1.936749
v -0.585327 0.418314 -1.941923
v -0.585327 0.677986 -1.941923
v -0.594751 0.418314 -1.948887
v -0.594751 0.677986 -1.948887
v -0.602486 0.418314 -1.957372
v -0.602486 0.677986 -1.957372
v -0.608233 0.418314 -1.967053
v -0.608233 0.677986 -1.967053
v -0.611772 0.418314 -1.977557
v -0.611772 0.677986 -1.977557
v -0.612967 0.418314 -1.988481
v -0.612967 0.677986 -1.988481
v -0.611772 0.418314 -1.999405
v -0.611772 0.677986 -1.999405
v -0.608233 0.418314 -2.009909
v -0.608233 0.677986 -2.009909
v -0.602486 0.418314 -2.019590
v -0.602486 0.677986 -2.019590
v -0.594751 0.418314 -2.028075
v -0.594751 0.677986 -2.028075
v -0.585327 0.418314 -2.035038
v -0.585327 0.677986 -2.035038
v -0.574574 0.418314 -2.040213
v -0.574574 0.677986 -2.040213
v -0.562907 0.418314 -2.043399
v -0.562907 0.677986 -2.043399
v -0.278907 0.418315 -2.092796
v -0.278907 0.638303 -2.092796
v -0.267930 0.418315 -2.091624
v -0.267930 0.638303 -2.091624
v -0.257375 0.418315 -2.088153
v -0.257375 0.638303 -2.088153
v -0.247648 0.418315 -2.082517
v -0.247648 0.638303 -2.082517
v -0.239122 0.418315 -2.074932
v -0.239122 0.638303 -2.074932
v -0.232124 0.418315 -2.065690
v -0.232124 0.638303 -2.065690
v -0.226925 0.418315 -2.055145
v -0.226925 0.638303 -2.055145
v -0.223723 0.418315 -2.043704
v -0.223723 0.638303 -2.043704
v -0.222642 0.418315 -2.031805
v -0.222642 0.638303 -2.031805
v -0.223723 0.418315 -2.019907
v -0.223723 0.638303 -2.019907
v -0.226925 0.418315 -2.008465
v -0.226925 0.638303 -2.008465
v -0.232124 0.418315 -1.997921
v -0.232124 0.638303 -1.997921
v -0.239122 0.418315 -1.988678
v -0.239122 0.638303 -1.988678
v -0.247648 0.418315 -1.981093
v -0.247648 0.638303 -1.981093
v -0.257375 0.418315 -1.975457
v -0.257375 0.638303 -1.975457
v -0.267930 0.418315 -1.971986
v -0.267930 0.638303 -1.971986
v -0.278907 0.418315 -1.970814
v -0.278907 0.638303 -1.970814
v -0.289883 0.418315 -1.971986
v -0.289883 0.638303 -1.971986
v -0.300438 0.418315 -1.975457
v -0.300438 0.638303 -1.975457
v -0.310165 0.418315 -1.981093
v -0.310166 0.638303 -1.981093
v -0.318692 0.418315 -1.988678
v -0.318692 0.638303 -1.988678
v -0.325689 0.418315 -1.997921
v -0.325689 0.638303 -1.997921
v -0.330888 0.418315 -2.008465
v -0.330888 0.638303 -2.008465
v -0.334090 0.418315 -2.019907
v -0.334090 0.638303 -2.019907
v -0.335171 0.418315 -2.031805
v -0.335171 0.638303 -2.031805
v -0.334090 0.418315 -2.043704
v -0.334090 0.638303 -2.043704
v -0.330888 0.418315 -2.055145
v -0.330888 0.638303 -2.055145
v -0.325689 0.418315 -2.065690
v -0.325689 0.638303 -2.065690
v -0.318692 0.418315 -2.074932
v -0.318692 0.638303 -2.074932
v -0.310165 0.418315 -2.082517
v -0.310166 0.638303 -2.082517
v -0.300438 0.418315 -2.088153
v -0.300438 0.638303 -2.088153
v -0.289883 0.418315 -2.091624
v -0.289883 0.638303 -2.091624
v -0.532763 0.846319 -2.149380
v -0.532763 1.051316 -2.149380
v -0.521410 0.846319 -2.148221
v -0.521410 1.051316 -2.148221
v -0.510493 0.846319 -2.144791
v -0.510493 1.051316 -2.144791
v -0.500432 0.846319 -2.139221
v -0.500432 1.051316 -2.139221
v -0.491613 0.846319 -2.131724
v -0.491613 1.051316 -2.131724
v -0.484376 0.846319 -2.122590
v -0.484376 1.051316 -2.122590
v -0.478998 0.846319 -2.112168
v -0.478998 1.051316 -2.112168
v -0.475686 0.846319 -2.100860
v -0.475686 1.051316 -2.100860
v -0.474568 0.846319 -2.089100
v -0.474568 1.051316 -2.089100
v -0.475686 0.846319 -2.077340
v -0.475686 1.051316 -2.077340
v -0.478998 0.846319 -2.066032
v -0.478998 1.051316 -2.066032
v -0.484376 0.846319 -2.055611
v -0.484376 1.051316 -2.055611
v -0.491613 0.846319 -2.046476
v -0.491613 1.051316 -2.046476
v -0.500432 0.846319 -2.038980
v -0.500432 1.051316 -2.038980
v -0.510493 0.846319 -2.033409
v -0.510493 1.051316 -2.033409
v -0.521410 0.846319 -2.029979
v -0.521410 1.051316 -2.029979
v -0.532763 0.846319 -2.028821
v -0.532763 1.051316 -2.028821
v -0.544117 0.846319 -2.029979
v -0.544117 1.051316 -2.029979
v -0.555034 0.846319 -2.033409
v -0.555034 1.051316 -2.033409
v -0.565095 0.846319 -2.038980
v -0.565095 1.051316 -2.038980
v -0.573914 0.846319 -2.046476
v -0.573914 1.051316 -2.046476
v -0.581151 0.846319 -2.055611
v -0.581151 1.051316 -2.055611
v -0.586529 0.846319 -2.066032
v -0.586529 1.051316 -2.066032
v -0.589841 0.846319 -2.077340
v -0.589841 1.051316 -2.077340
v -0.590959 0.846319 -2.089100
v -0.590959 1.051316 -2.089100
v -0.589841 0.846319 -2.100860
v -0.589841 1.051316 -2.100860
v -0.586529 0.846319 -2.112168
v -0.586529 1.051316 -2.112168
v -0.581151 0.846319 -2.122590
v -0.581151 1.051316 -2.122590
v -0.573914 0.846319 -2.131724
v -0.573914 1.051316 -2.131724
v -0.565095 0.846319 -2.139221
v -0.565095 1.051316 -2.139221
v -0.555034 0.846319 -2.144791
v -0.555034 1.051316 -2.144791
v -0.544117 0.846319 -2.148221
v -0.544117 1.051316 -2.148221
v -1.944341 1.396759 -0.868784
v -1.944341 1.447097 -0.868784
v -1.944341 1.396759 -1.050754
v -1.944341 1.447097 -1.050754
v -1.636144 1.396759 -0.868784
v -1.636144 1.447097 -0.868784
v -1.636144 1.396759 -1.050754
v -1.636144 1.447097 -1.050754
v -1.793901 1.396759 0.813101
v -1.793901 1.436512 0.813101
v -1.793901 1.396759 -0.423727
v -1.793901 1.436512 -0.423727
v -1.404419 1.396759 0.813101
v -1.404419 1.436512 0.813101
v -1.404419 1.396759 -0.423727
v -1.404419 1.436512 -0.423727
vn -0.0000 -1.0000 -0.0000
vn -0.0000 1.0000 -0.0000
vn -0.0000 -0.0000 -1.0000
vn -0.0000 -0.0000 1.0000
vn 1.0000 -0.0000 -0.0000
vn -1.0000 -0.0000 -0.0000
vn -0.0000 -0.7071 0.7071
vn -0.7071 -0.0000 0.7071
vn -0.0000 0.7071 0.7071
vn 0.7071 -0.0000 0.7071
vn 0.9898 0.1426 -0.0000
vn -0.0000 0.6939 -0.7201
vn -0.9898 -0.1426 -0.0000
vn -0.0000 -0.6939 0.7201
vn 0.6865 -0.7271 -0.0000
vn -0.0000 0.0046 -1.0000
vn -0.6865 0.7271 -0.0000
vn -0.0000 -0.0046 1.0000
vn 0.7071 -0.0000 -0.7071
vn 0.7071 -0.7071 -0.0000
vn 0.7071 0.7071 -0.0000
vn 0.0050 -1.0000 -0.0000
vn -0.0050 1.0000 -0.0000
vn 0.6534 -0.0000 -0.7570
vn -0.6534 -0.0000 0.7570
vn 0.0883 -0.0000 -0.9961
vn -0.7973 -0.0000 0.6036
vn 0.9630 -0.0000 0.2695
vn 0.2635 -0.0000 -0.9647
vn -0.6647 -0.0000 0.7471
vn 0.4336 -0.0000 -0.9011
vn 0.5943 -0.0000 -0.8043
vn 0.9959 -0.0000 0.0905
vn 0.7390 -0.0000 -0.6737
vn -0.5013 -0.0000 0.8653
vn 0.8599 -0.0000 -0.5105
vn 0.9477 -0.0000 -0.3193
vn 0.9959 -0.0000 -0.0905
vn 0.9941 -0.0000 -0.1087
vn -0.3124 -0.0000 0.9500
vn 0.9941 -0.0000 0.1087
vn 0.9477 -0.0000 0.3193
vn 0.9630 -0.0000 -0.2695
vn 0.8599 -0.0000 0.5105
vn -0.1062 -0.0000 0.9943
vn 0.7390 -0.0000 0.6737
vn 0.5943 -0.0000 0.8043
vn 0.8969 -0.0000 -0.4423
vn 0.4336 -0.0000 0.9011
vn 0.1062 -0.0000 0.9943
vn 0.2635 -0.0000 0.9647
vn 0.0883 -0.0000 0.9961
vn 0.7973 -0.0000 -0.6036
vn -0.0883 -0.0000 0.9961
vn 0.3124 -0.0000 0.9500
vn -0.2635 -0.0000 0.9647
vn -0.4336 -0.0000 0.9011
vn 0.6647 -0.0000 -0.7471
vn -0.5943 -0.0000 0.8043
vn 0.5013 -0.0000 0.8653
vn -0.7390 -0.0000 0.6737
vn -0.8599 -0.0000 0.5105
vn 0.5013 -0.0000 -0.8653
vn -0.9477 -0.0000 0.3193
vn 0.6647 -0.0000 0.7471
vn -0.9941 -0.0000 0.1088
vn -0.9941 -0.0000 -0.1088
vn 0.3124 -0.0000 -0.9500
vn -0.9477 -0.0000 -0.3193
vn 0.7973 -0.0000 0.6036
vn -0.8599 -0.0000 -0.5105
vn -0.7390 -0.0000 -0.6737
vn 0.1062 -0.0000 -0.9943
vn -0.5943 -0.0000 -0.8043
vn 0.8969 -0.0000 0.4423
vn -0.4336 -0.0000 -0.9011
vn -0.2635 -0.0000 -0.9647
vn -0.0883 -0.0000 -0.9961
vn -0.8969 -0.0000 0.4423
vn -0.9630 -0.0000 0.2695
vn -0.9959 -0.0000 0.0905
vn -0.9959 -0.0000 -0.0905
vn -0.9630 -0.0000 -0.2695
vn -0.8969 -0.0000 -0.4423
vn -0.7973 -0.0000 -0.6036
vn -0.6647 -0.0000 -0.7471
vn -0.5013 -0.0000 -0.8653
vn -0.3124 -0.0000 -0.9500
vn -0.1062 -0.0000 -0.9943
vn 0.1015 -0.0000 -0.9948
vn 0.2998 -0.0000 -0.9540
vn 0.4844 -0.0000 -0.8749
vn 0.6477 -0.0000 -0.7619
vn 0.7838 -0.0000 -0.6210
vn 0.8887 -0.0000 -0.4586
vn 0.9597 -0.0000 -0.2811
vn 0.9955 -0.0000 -0.0947
vn 0.9955 -0.0000 0.0947
vn 0.9597 -0.0000 0.2811
vn 0.8887 -0.0000 0.4586
vn 0.7838 -0.0000 0.6210
vn 0.6477 -0.0000 0.7619
vn 0.4844 -0.0000 0.8749
vn 0.2998 -0.0000 0.9540
vn 0.1015 -0.0000 0.9948
vn -0.1015 -0.0000 0.9948
vn -0.2998 -0.0000 0.9540
vn -0.4844 -0.0000 0.8749
vn -0.6477 -0.0000 0.7619
vn -0.7838 -0.0000 0.6210
vn -0.8887 -0.0000 0.4586
vn -0.9597 -0.0000 0.2811
vn -0.9955 -0.0000 0.0947
vn -0.9955 -0.0000 -0.0947
vn -0.9597 -0.0000 -0.2811
vn -0.8887 -0.0000 -0.4586
vn -0.7838 -0.0000 -0.6210
vn -0.6477 -0.0000 -0.7619
vn -0.4844 -0.0000 -0.8749
vn -0.2998 -0.0000 -0.9540
vn -0.1015 -0.0000 -0.9948
vt 0.000000 0.000000
vt 0.000000 1.000000
vt 1.000000 1.000000
vt 1.000000 0.000000
vt 0.375000 0.000000
vt 0.625000 0.000000
vt 0.625000 0.250000
vt 0.375000 0.250000
vt 0.625000 0.500000
vt 0.375000 0.500000
vt 0.625000 0.750000
vt 0.375000 0.750000
vt 0.625000 1.000000
vt 0.375000 1.000000
vt 0.125000 0.500000
vt 0.125000 0.750000
vt 0.875000 0.500000
vt 0.875000 0.750000
vt 0.869779 0.743224
vt 0.869779 0.506776
vt 0.630221 0.506777
vt 0.433653 0.500000
vt 0.630221 0.743224
vt 0.433653 0.750000
vt 0.369871 1.000000
vt 0.369871 0.000000
vt 0.369871 0.250000
vt 0.616945 0.515520
vt 0.383055 0.515520
vt 0.371611 0.496611
vt 0.628389 0.496611
vt 0.371611 0.753389
vt 0.383055 0.734480
vt 0.628389 0.753389
vt 0.616945 0.734480
vt 0.612173 0.763640
vt 0.612173 0.986360
vt 0.387827 0.986360
vt 0.387827 0.763640
vt 1.000000 0.500000
vt 0.968750 1.000000
vt 0.968750 0.500000
vt 0.937500 1.000000
vt 0.937500 0.500000
vt 0.906250 1.000000
vt 0.906250 0.500000
vt 0.875000 1.000000
vt 0.843750 1.000000
vt 0.843750 0.500000
vt 0.812500 1.000000
vt 0.812500 0.500000
vt 0.781250 1.000000
vt 0.781250 0.500000
vt 0.750000 1.000000
vt 0.750000 0.500000
vt 0.718750 1.000000
vt 0.718750 0.500000
vt 0.687500 1.000000
vt 0.687500 0.500000
vt 0.656250 1.000000
vt 0.656250 0.500000
vt 0.593750 1.000000
vt 0.593750 0.500000
vt 0.562500 1.000000
vt 0.562500 0.500000
vt 0.531250 1.000000
vt 0.531250 0.500000
vt 0.500000 1.000000
vt 0.500000 0.500000
vt 0.468750 1.000000
vt 0.468750 0.500000
vt 0.437500 1.000000
vt 0.437500 0.500000
vt 0.406250 1.000000
vt 0.406250 0.500000
vt 0.343750 1.000000
vt 0.343750 0.500000
vt 0.312500 1.000000
vt 0.312500 0.500000
vt 0.281250 1.000000
vt 0.281250 0.500000
vt 0.250000 1.000000
vt 0.250000 0.500000
vt 0.218750 1.000000
vt 0.218750 0.500000
vt 0.187500 1.000000
vt 0.187500 0.500000
vt 0.156250 1.000000
vt 0.156250 0.500000
vt 0.125000 1.000000
vt 0.093750 1.000000
vt 0.093750 0.500000
vt 0.062500 1.000000
vt 0.062500 0.500000
vt 0.296822 0.485388
vt 0.250000 0.490000
vt 0.203178 0.485388
vt 0.158156 0.471731
vt 0.116663 0.449553
vt 0.080294 0.419706
vt 0.050447 0.383337
vt 0.028269 0.341845
vt 0.014612 0.296822
vt 0.010000 0.250000
vt 0.014612 0.203178
vt 0.028269 0.158156
vt 0.050447 0.116663
vt 0.080294 0.080295
vt 0.116663 0.050447
vt 0.158156 0.028269
vt 0.203178 0.014612
vt 0.250000 0.010000
vt 0.296822 0.014612
vt 0.341844 0.028269
vt 0.383337 0.050447
vt 0.419706 0.080295
vt 0.449553 0.116663
vt 0.471731 0.158156
vt 0.485388 0.203178
vt 0.490000 0.250000
vt 0.485388 0.296822
vt 0.471731 0.341845
vt 0.449553 0.383337
vt 0.419706 0.419706
vt 0.383337 0.449553
vt 0.341844 0.471731
vt 0.031250 1.000000
vt 0.031250 0.500000
vt 0.000000 0.500000
vt 0.750000 0.490000
vt 0.796821 0.485388
vt 0.841844 0.471731
vt 0.883337 0.449553
vt 0.919706 0.419706
vt 0.949553 0.383337
vt 0.971731 0.341845
vt 0.985389 0.296822
vt 0.990000 0.250000
vt 0.985389 0.203178
vt 0.971731 0.158156
vt 0.949553 0.116663
vt 0.919706 0.080295
vt 0.883337 0.050447
vt 0.841844 0.028269
vt 0.796821 0.014612
vt 0.750000 0.010000
vt 0.703178 0.014612
vt 0.658156 0.028269
vt 0.616663 0.050447
vt 0.580294 0.080295
vt 0.550447 0.116663
vt 0.528269 0.158156
vt 0.514611 0.203178
vt 0.510000 0.250000
vt 0.514611 0.296822
vt 0.528269 0.341845
vt 0.550447 0.383337
vt 0.580294 0.419706
vt 0.616663 0.449553
vt 0.658156 0.471731
vt 0.703178 0.485388
vt 0.971731 0.158157
vt 0.949553 0.116664
vt 0.919705 0.080295
vt 0.796822 0.014612
vt 0.658156 0.028269
vt 0.616663 0.050447
vt 0.580294 0.080295
vt 0.550447 0.116664
vt 0.528269 0.158157
vt 0.514611 0.203179
vt 0.528269 0.341844
vt 0.550447 0.383336
vt 0.580294 0.419706
vt 0.616663 0.449553
vt 0.658156 0.471732
vt 0.750000 0.490001
vt 0.796822 0.485388
vt 0.841844 0.471732
vt 0.919705 0.419706
vt 0.949553 0.383336
vt 0.971731 0.341844
vt 0.985388 0.296822
vt 0.990000 0.250000
vt 0.985388 0.203179
vt 0.050447 0.116664
vt 0.080294 0.080295
vt 0.116663 0.050447
vt 0.158156 0.028269
vt 0.203178 0.014612
vt 0.250000 0.010000
vt 0.296821 0.014612
vt 0.341844 0.028269
vt 0.383337 0.050447
vt 0.419705 0.080295
vt 0.449553 0.116664
vt 0.471731 0.158157
vt 0.485388 0.203179
vt 0.490000 0.250000
vt 0.485388 0.296822
vt 0.471731 0.341844
vt 0.449553 0.383336
vt 0.419705 0.419706
vt 0.383337 0.449553
vt 0.341844 0.471732
vt 0.296821 0.485388
vt 0.250000 0.490001
vt 0.203178 0.485388
vt 0.158156 0.471732
vt 0.116663 0.449553
vt 0.080294 0.419706
vt 0.050447 0.383336
vt 0.028269 0.341844
vt 0.014611 0.296822
vt 0.010000 0.250000
vt 0.014611 0.203179
vt 0.028269 0.158157
vt 0.250000 0.490000
vt 0.158156 0.471731
vt 0.116663 0.449553
vt 0.080294 0.419705
vt 0.028269 0.158156
vt 0.080294 0.080294
vt 0.116663 0.050447
vt 0.341844 0.028269
vt 0.383337 0.050447
vt 0.419706 0.080294
vt 0.449552 0.116664
vt 0.471731 0.158156
vt 0.485388 0.203178
vt 0.490000 0.250000
vt 0.485388 0.296822
vt 0.471731 0.341844
vt 0.449552 0.383336
vt 0.419706 0.419705
vt 0.383337 0.449553
vt 0.341844 0.471731
vt 0.919706 0.419705
vt 0.949552 0.383336
vt 0.971731 0.341844
vt 0.990000 0.250000
vt 0.985388 0.203178
vt 0.949552 0.116664
vt 0.919706 0.080294
vt 0.703178 0.014612
vt 0.580294 0.080294
vt 0.528269 0.158156
vt 0.514611 0.203178
vt 0.514611 0.296822
vt 0.580294 0.419705
vt 0.703178 0.485388
s 0
f 1/1/1 3/2/1 4/3/1 2/4/1
f 6/1/2 7/4/2 8/3/2 5/2/2
f 4/3/3 3/2/3 5/2/3 8/3/3
f 1/1/4 2/4/4 7/4/4 6/1/4
f 2/4/5 4/3/5 8/3/5 7/4/5
f 3/2/6 1/1/6 6/1/6 5/2/6
f 11/1/3 5/1/3 13/1/3 18/1/3
f 8/3/3 5/2/3 13/2/3 15/3/3
f 15/3/2 13/2/2 17/2/2 16/3/2
f 13/2/2 14/1/2 19/1/2 18/2/2
f 5/1/6 9/1/6 17/1/6 13/1/6
f 9/1/4 10/1/4 16/1/4 17/1/4
f 6/1/4 12/1/4 19/1/4 14/1/4
f 12/1/5 11/1/5 18/1/5 19/1/5
f 5/2/6 6/1/6 14/1/6 13/2/6
f 10/1/5 8/1/5 15/1/5 16/1/5
f 20/5/4 21/6/4 23/7/4 22/8/4
f 22/8/2 23/7/2 27/9/2 26/10/2
f 26/10/3 27/9/3 25/11/3 24/12/3
f 24/12/1 25/11/1 21/13/1 20/14/1
f 22/15/6 26/10/6 24/12/6 20/16/6
f 27/9/5 23/17/5 21/18/5 25/11/5
f 28/5/4 29/6/4 31/7/4 30/8/4
f 30/8/2 31/7/2 35/9/2 34/10/2
f 34/10/3 35/9/3 33/11/3 32/12/3
f 32/12/1 33/11/1 29/13/1 28/14/1
f 30/15/6 34/10/6 32/12/6 28/16/6
f 35/9/5 31/17/5 29/18/5 33/11/5
f 36/5/5 37/6/5 39/7/5 38/8/5
f 38/8/3 39/7/3 43/9/3 42/10/3
f 42/10/6 43/9/6 41/11/6 40/12/6
f 40/12/4 41/11/4 37/13/4 36/14/4
f 38/15/2 42/10/2 40/12/2 36/16/2
f 43/9/1 39/17/1 37/18/1 41/11/1
f 44/5/5 45/6/5 47/7/5 46/8/5
f 46/8/3 47/7/3 51/9/3 50/10/3
f 50/10/6 51/9/6 49/11/6 48/12/6
f 48/12/4 49/11/4 45/13/4 44/14/4
f 46/15/2 50/10/2 48/12/2 44/16/2
f 51/9/1 47/17/1 45/18/1 49/11/1
f 52/5/5 53/6/5 55/7/5 54/8/5
f 54/8/3 55/7/3 59/9/3 58/10/3
f 58/10/6 59/9/6 57/11/6 56/12/6
f 56/12/4 57/11/4 53/13/4 52/14/4
f 54/15/2 58/10/2 56/12/2 52/16/2
f 59/9/1 55/17/1 53/18/1 57/11/1
f 60/5/5 61/6/5 63/7/5 62/8/5
f 62/8/3 63/7/3 67/9/3 66/10/3
f 66/10/6 67/9/6 65/11/6 64/12/6
f 64/12/4 65/11/4 61/13/4 60/14/4
f 62/15/2 66/10/2 64/12/2 60/16/2
f 67/9/1 63/17/1 61/18/1 65/11/1
f 75/5/1 73/6/1 69/7/1 71/8/1
f 84/8/5 85/7/5 73/9/5 75/10/5
f 86/10/2 87/9/2 85/11/2 84/12/2
f 71/12/6 69/11/6 87/13/6 86/14/6
f 70/15/3 74/10/3 72/12/3 68/16/3
f 71/15/3 86/10/3 84/12/3 75/16/3
f 76/19/7 78/20/7 79/17/7 77/18/7
f 78/20/8 82/21/8 83/22/8 79/17/8
f 82/21/9 80/23/9 81/24/9 83/22/9
f 80/23/10 76/19/10 77/18/10 81/24/10
f 72/12/6 81/24/6 77/25/6 68/14/6
f 68/5/2 77/26/2 79/27/2 70/8/2
f 82/21/4 78/20/4 76/19/4 80/23/4
f 70/8/5 79/27/5 83/22/5 74/10/5
f 74/10/1 83/22/1 81/24/1 72/12/1
f 87/9/4 69/17/4 73/18/4 85/11/4
f 88/5/1 89/6/1 91/7/1 90/8/1
f 90/8/6 91/7/6 95/9/6 94/10/6
f 94/10/2 95/9/2 93/11/2 92/12/2
f 92/12/5 93/11/5 89/13/5 88/14/5
f 90/15/3 94/10/3 92/12/3 88/16/3
f 95/9/4 91/17/4 89/18/4 93/11/4
f 96/5/11 97/6/11 99/7/11 98/8/11
f 98/8/12 99/7/12 103/9/12 102/10/12
f 102/10/13 103/9/13 101/11/13 100/12/13
f 100/12/14 101/11/14 97/13/14 96/14/14
f 98/15/2 102/10/2 100/12/2 96/16/2
f 103/9/1 99/17/1 97/18/1 101/11/1
f 104/5/11 105/6/11 107/7/11 106/8/11
f 106/8/12 107/7/12 111/9/12 110/10/12
f 110/10/13 111/9/13 109/11/13 108/12/13
f 108/12/14 109/11/14 105/13/14 104/14/14
f 106/15/2 110/10/2 108/12/2 104/16/2
f 111/9/1 107/17/1 105/18/1 109/11/1
f 112/5/4 113/6/4 115/7/4 114/8/4
f 114/8/2 115/7/2 119/9/2 118/10/2
f 118/10/3 119/9/3 117/11/3 116/12/3
f 116/12/1 117/11/1 113/13/1 112/14/1
f 114/15/6 118/10/6 116/12/6 112/16/6
f 119/9/5 115/17/5 113/18/5 117/11/5
f 120/5/15 121/6/15 123/7/15 122/8/15
f 122/8/16 123/7/16 127/9/16 126/10/16
f 126/10/17 127/9/17 125/11/17 124/12/17
f 124/12/18 125/11/18 121/13/18 120/14/18
f 122/15/2 126/10/2 124/12/2 120/16/2
f 127/9/1 123/17/1 121/18/1 125/11/1
f 128/5/15 129/6/15 131/7/15 130/8/15
f 130/8/16 131/7/16 135/9/16 134/10/16
f 134/10/17 135/9/17 133/11/17 132/12/17
f 132/12/18 133/11/18 129/13/18 128/14/18
f 130/15/2 134/10/2 132/12/2 128/16/2
f 135/9/1 131/17/1 129/18/1 133/11/1
f 136/5/6 137/6/6 139/7/6 138/8/6
f 138/8/3 139/7/3 143/9/3 142/10/3
f 142/10/5 143/9/5 141/11/5 140/12/5
f 140/12/4 141/11/4 137/13/4 136/14/4
f 138/15/1 142/10/1 140/12/1 136/16/1
f 143/9/2 139/17/2 137/18/2 141/11/2
f 144/5/6 145/6/6 147/7/6 146/8/6
f 146/8/3 147/7/3 151/9/3 150/10/3
f 150/10/5 151/9/5 149/11/5 148/12/5
f 148/12/4 149/11/4 145/13/4 144/14/4
f 146/15/1 150/10/1 148/12/1 144/16/1
f 151/9/2 147/17/2 145/18/2 149/11/2
f 152/5/5 153/6/5 155/7/5 154/8/5
f 154/8/3 155/7/3 159/9/3 158/10/3
f 158/10/6 159/9/6 157/11/6 156/12/6
f 156/12/4 157/11/4 153/13/4 152/14/4
f 154/15/2 158/10/2 156/12/2 152/16/2
f 159/9/1 155/17/1 153/18/1 157/11/1
f 160/5/6 161/6/6 163/7/6 162/8/6
f 170/28/19 168/29/19 169/30/19 171/31/19
f 165/32/20 169/30/20 168/29/20 164/33/20
f 171/31/21 166/34/21 167/35/21 170/28/21
f 166/34/10 165/32/10 164/33/10 167/35/10
f 162/15/1 169/30/1 165/32/1 160/16/1
f 168/29/5 170/28/5 167/35/5 164/33/5
f 165/32/4 166/34/4 161/13/4 160/14/4
f 171/31/2 163/17/2 161/18/2 166/34/2
f 162/8/3 163/7/3 171/31/3 169/30/3
f 180/5/6 181/6/6 175/7/6 174/8/6
f 174/8/3 175/7/3 179/9/3 178/10/3
f 178/10/5 179/9/5 182/11/5 183/12/5
f 177/36/1 173/37/1 185/37/1 186/36/1
f 174/15/1 178/10/1 183/12/1 180/16/1
f 179/9/2 175/17/2 181/18/2 182/11/2
f 172/38/4 173/37/4 181/13/4 180/14/4
f 177/36/4 176/39/4 183/12/4 182/11/4
f 176/39/4 172/38/4 180/14/4 183/12/4
f 173/37/4 177/36/4 182/11/4 181/13/4
f 187/39/4 186/36/4 185/37/4 184/38/4
f 176/39/6 177/36/6 186/36/6 187/39/6
f 172/38/2 176/39/2 187/39/2 184/38/2
f 173/37/5 172/38/5 184/38/5 185/37/5
f 188/5/1 189/6/1 191/7/1 190/8/1
f 190/8/6 191/7/6 195/9/6 194/10/6
f 194/10/2 195/9/2 193/11/2 192/12/2
f 192/12/5 193/11/5 189/13/5 188/14/5
f 190/15/3 194/10/3 192/12/3 188/16/3
f 195/9/4 191/17/4 189/18/4 193/11/4
f 196/5/1 197/6/1 199/7/1 198/8/1
f 198/8/6 199/7/6 203/9/6 202/10/6
f 202/10/2 203/9/2 201/11/2 200/12/2
f 200/12/5 201/11/5 197/13/5 196/14/5
f 198/15/3 202/10/3 200/12/3 196/16/3
f 203/9/4 199/17/4 197/18/4 201/11/4
f 204/5/22 205/6/22 207/7/22 206/8/22
f 206/8/6 207/7/6 211/9/6 210/10/6
f 210/10/23 211/9/23 209/11/23 208/12/23
f 208/12/5 209/11/5 205/13/5 204/14/5
f 206/15/24 210/10/24 208/12/24 204/16/24
f 211/9/25 207/17/25 205/18/25 209/11/25
f 212/40/26 213/3/26 215/41/26 214/42/26
f 316/40/27 317/3/27 319/41/27 318/42/27
f 294/42/28 295/41/28 297/43/28 296/44/28
f 214/42/29 215/41/29 217/43/29 216/44/29
f 314/44/30 315/43/30 317/45/30 316/46/30
f 216/44/31 217/43/31 219/45/31 218/46/31
f 218/46/32 219/45/32 221/47/32 220/17/32
f 292/46/33 293/45/33 295/47/33 294/17/33
f 220/17/34 221/47/34 223/48/34 222/49/34
f 312/17/35 313/47/35 315/48/35 314/49/35
f 222/49/36 223/48/36 225/50/36 224/51/36
f 224/51/37 225/50/37 227/52/37 226/53/37
f 290/49/38 291/48/38 293/50/38 292/51/38
f 226/53/39 227/52/39 229/54/39 228/55/39
f 310/51/40 311/50/40 313/52/40 312/53/40
f 228/55/41 229/54/41 231/56/41 230/57/41
f 230/57/42 231/56/42 233/58/42 232/59/42
f 288/53/43 289/52/43 291/54/43 290/55/43
f 232/59/44 233/58/44 235/60/44 234/61/44
f 308/55/45 309/54/45 311/56/45 310/57/45
f 234/61/46 235/60/46 237/13/46 236/9/46
f 236/9/47 237/13/47 239/62/47 238/63/47
f 286/57/48 287/56/48 289/58/48 288/59/48
f 238/63/49 239/62/49 241/64/49 240/65/49
f 306/59/50 307/58/50 309/60/50 308/61/50
f 240/65/51 241/64/51 243/66/51 242/67/51
f 242/67/52 243/66/52 245/68/52 244/69/52
f 284/61/53 285/60/53 287/13/53 286/9/53
f 244/69/54 245/68/54 247/70/54 246/71/54
f 304/9/55 305/13/55 307/62/55 306/63/55
f 246/71/56 247/70/56 249/72/56 248/73/56
f 248/73/57 249/72/57 251/74/57 250/75/57
f 282/63/58 283/62/58 285/64/58 284/65/58
f 250/75/59 251/74/59 253/14/59 252/10/59
f 302/65/60 303/64/60 305/66/60 304/67/60
f 252/10/61 253/14/61 255/76/61 254/77/61
f 254/77/62 255/76/62 257/78/62 256/79/62
f 280/67/63 281/66/63 283/68/63 282/69/63
f 256/79/64 257/78/64 259/80/64 258/81/64
f 300/69/65 301/68/65 303/70/65 302/71/65
f 258/81/66 259/80/66 261/82/66 260/83/66
f 260/83/67 261/82/67 263/84/67 262/85/67
f 278/71/68 279/70/68 281/72/68 280/73/68
f 262/85/69 263/84/69 265/86/69 264/87/69
f 298/73/70 299/72/70 301/74/70 300/75/70
f 264/87/71 265/86/71 267/88/71 266/89/71
f 266/89/72 267/88/72 269/90/72 268/15/72
f 276/75/73 277/74/73 279/14/73 278/10/73
f 268/15/74 269/90/74 271/91/74 270/92/74
f 296/10/75 297/14/75 299/76/75 298/77/75
f 270/92/76 271/91/76 273/93/76 272/94/76
f 215/95/2 213/96/2 275/97/2 273/98/2 271/99/2 269/100/2 267/101/2 265/102/2 263/103/2 261/104/2 259/105/2 257/106/2 255/107/2 253/108/2 251/109/2 249/110/2 247/111/2 245/112/2 243/113/2 241/114/2 239/115/2 237/116/2 235/117/2 233/118/2 231/119/2 229/120/2 227/121/2 225/122/2 223/123/2 221/124/2 219/125/2 217/126/2
f 272/94/77 273/93/77 275/127/77 274/128/77
f 274/128/78 275/127/78 213/2/78 212/129/78
f 212/130/1 214/131/1 216/132/1 218/133/1 220/134/1 222/135/1 224/136/1 226/137/1 228/138/1 230/139/1 232/140/1 234/141/1 236/142/1 238/143/1 240/144/1 242/145/1 244/146/1 246/147/1 248/148/1 250/149/1 252/150/1 254/151/1 256/152/1 258/153/1 260/154/1 262/155/1 264/156/1 266/157/1 268/158/1 270/159/1 272/160/1 274/161/1
f 318/77/79 319/76/79 321/78/79 320/79/79
f 320/79/80 321/78/80 323/80/80 322/81/80
f 322/81/81 323/80/81 325/82/81 324/83/81
f 324/83/82 325/82/82 327/84/82 326/85/82
f 326/85/83 327/84/83 329/86/83 328/87/83
f 328/87/84 329/86/84 331/88/84 330/89/84
f 330/89/85 331/88/85 333/90/85 332/15/85
f 332/15/86 333/90/86 335/91/86 334/92/86
f 334/92/87 335/91/87 337/93/87 336/94/87
f 296/162/1 298/163/1 300/164/1 302/143/1 304/144/1 306/165/1 308/146/1 310/147/1 312/166/1 314/167/1 316/168/1 318/169/1 320/170/1 322/171/1 324/154/1 326/155/1 328/172/1 330/173/1 332/174/1 334/175/1 336/176/1 338/161/1 276/177/1 278/178/1 280/179/1 282/133/1 284/180/1 286/181/1 288/182/1 290/183/1 292/184/1 294/185/1
f 336/94/88 337/93/88 339/127/88 338/128/88
f 338/128/89 339/127/89 277/2/89 276/129/89
f 319/186/2 317/187/2 315/188/2 313/189/2 311/190/2 309/191/2 307/192/2 305/193/2 303/194/2 301/195/2 299/196/2 297/197/2 295/198/2 293/199/2 291/200/2 289/201/2 287/202/2 285/203/2 283/204/2 281/205/2 279/206/2 277/207/2 339/208/2 337/209/2 335/210/2 333/211/2 331/212/2 329/213/2 327/214/2 325/215/2 323/216/2 321/217/2
f 340/40/90 341/3/90 343/41/90 342/42/90
f 342/42/91 343/41/91 345/43/91 344/44/91
f 344/44/92 345/43/92 347/45/92 346/46/92
f 346/46/93 347/45/93 349/47/93 348/17/93
f 348/17/94 349/47/94 351/48/94 350/49/94
f 350/49/95 351/48/95 353/50/95 352/51/95
f 352/51/96 353/50/96 355/52/96 354/53/96
f 354/53/97 355/52/97 357/54/97 356/55/97
f 356/55/98 357/54/98 359/56/98 358/57/98
f 358/57/99 359/56/99 361/58/99 360/59/99
f 360/59/100 361/58/100 363/60/100 362/61/100
f 362/61/101 363/60/101 365/13/101 364/9/101
f 364/9/102 365/13/102 367/62/102 366/63/102
f 366/63/103 367/62/103 369/64/103 368/65/103
f 368/65/104 369/64/104 371/66/104 370/67/104
f 370/67/105 371/66/105 373/68/105 372/69/105
f 372/69/106 373/68/106 375/70/106 374/71/106
f 374/71/107 375/70/107 377/72/107 376/73/107
f 376/73/108 377/72/108 379/74/108 378/75/108
f 378/75/109 379/74/109 381/14/109 380/10/109
f 380/10/110 381/14/110 383/76/110 382/77/110
f 382/77/111 383/76/111 385/78/111 384/79/111
f 384/79/112 385/78/112 387/80/112 386/81/112
f 386/81/113 387/80/113 389/82/113 388/83/113
f 388/83/114 389/82/114 391/84/114 390/85/114
f 390/85/115 391/84/115 393/86/115 392/87/115
f 392/87/116 393/86/116 395/88/116 394/89/116
f 394/89/117 395/88/117 397/90/117 396/15/117
f 396/15/118 397/90/118 399/91/118 398/92/118
f 398/92/119 399/91/119 401/93/119 400/94/119
f 343/206/2 341/218/2 403/97/2 401/219/2 399/220/2 397/221/2 395/212/2 393/213/2 391/103/2 389/215/2 387/105/2 385/222/2 383/186/2 381/223/2 379/224/2 377/189/2 375/111/2 373/191/2 371/192/2 369/225/2 367/226/2 365/227/2 363/228/2 361/229/2 359/230/2 357/231/2 355/232/2 353/233/2 351/234/2 349/235/2 347/236/2 345/237/2
f 400/94/120 401/93/120 403/127/120 402/128/120
f 402/128/121 403/127/121 341/2/121 340/129/121
f 340/130/1 342/131/1 344/132/1 346/133/1 348/238/1 350/239/1 352/240/1 354/183/1 356/241/1 358/242/1 360/140/1 362/243/1 364/244/1 366/143/1 368/144/1 370/145/1 372/146/1 374/245/1 376/148/1 378/149/1 380/246/1 382/169/1 384/247/1 386/248/1 388/154/1 390/249/1 392/172/1 394/173/1 396/250/1 398/159/1 400/160/1 402/251/1
f 404/5/6 405/6/6 407/7/6 406/8/6
f 406/8/3 407/7/3 411/9/3 410/10/3
f 410/10/5 411/9/5 409/11/5 408/12/5
f 408/12/4 409/11/4 405/13/4 404/14/4
f 406/15/1 410/10/1 408/12/1 404/16/1
f 411/9/2 407/17/2 405/18/2 409/11/2
f 412/5/6 413/6/6 415/7/6 414/8/6
f 414/8/3 415/7/3 419/9/3 418/10/3
f 418/10/5 419/9/5 417/11/5 416/12/5
f 416/12/4 417/11/4 413/13/4 412/14/4
f 414/15/1 418/10/1 416/12/1 412/16/1
f 419/9/2 415/17/2 413/18/2 417/11/2
